<svg xmlns="http://www.w3.org/2000/svg" width="840.049" height="731.989" viewBox="0 0 840.049 731.989"><g transform="translate(-0.002 0.001)"><g transform="translate(-68 -18)"><path d="M420.612,614.793c-4.753,16.1-1.722,34.877,9.164,48.117,7.031,8.551,23.751,16.2,33.136,7.3,4.2-3.982,5.972-17.611,7.765-23.97,1.649-5.849,4.407-16.68,3.182-21.587-1.784-7.151-16.036-5.5-22.7-6.124C440.938,617.563,430.789,616.1,420.612,614.793Zm-134.488,8.176c-2.238,4.926-5.808,8.19-7.33,13.657a66.242,66.242,0,0,0-1.987,10.812c-.478,4.438-.8,4.268,2.258,6.343,4.672,3.167,16.624,2.923,22.309,3.841,7.42,1.2,14.8,2.609,22.228,3.8-1.8-6.909-.856-14.347-2.716-21.394a53.151,53.151,0,0,0-9.4-19.232c-3.3-4.186-8.112-9.2-14.055-9.226-7.658-.03-8.868,6.03-11.307,11.4ZM757.245,474.921c-1.137,14.814.974,30.589,9.4,43.319,3.568,5.391,8.764,8.291,12.982,12.933,4.881,5.372,7.528,12.012,15.239,14.31,4.975,1.485,10.814.46,15.987,1.128,8.587,1.11,11.122-.093,18.363-4.538,5.2-3.194,11.2-2.595,16.679-6.1,6.576-4.2,12.3-10.184,18.531-14.938C829.469,503.915,793.431,489.333,757.245,474.921Zm-93.965,8.785C649.9,490,642.828,500.738,639,514.6c36.9,8.435,72.817,18.754,109.064,30.39-10.121-25.746-21.488-49.321-49.176-61.3-5.524-2.389-11.2-6.193-17.487-6.1C675.144,477.679,668.771,481.123,663.28,483.706ZM326.7,521.873c-19.018,10.009-9.351,42-2.7,56.2,8.458-6.221,17.325-12.28,25.584-18.338,9.027-6.622,17.143-15.145,25.378-22.688-4.36-2.274-7.194-5.891-11.247-8.489-4.013-2.571-7.994-2.755-12.489-3.76C342.613,522.874,335.647,517.162,326.7,521.873Zm148.409-72.082c-1.518,1.947-3.332,3.783-4.762,5.784-3.474,4.859-6.478,9.8-10.506,14.308-7.135,7.988-17.523,18.516-29.213,19.245l-.339,3.41c3.447-.087,5.486-3.056,8.477-3.358,2.348-.236,5.635,1.558,8.514,1.3a231.4,231.4,0,0,1,26.688-.992c17.839.473,35.374,3.317,52.909,5.584-3.35-11.94-9.6-24.17-19.565-32.157-3.444-2.762-6.744-6.558-10.632-8.759-2.341-1.325-4.819-1.426-7.228-2.461-2.788-1.2-6.367-5.2-9.246-5.578C477.2,445.72,477.184,447.128,475.109,449.791Zm-142.951,1.088c-9.357,7.512-16.547,17.043-24.242,26.065-6.965,8.166-16.4,19.815-18.881,30.329,12.352,5.811,33.536.492,41.5-10.257,9.829-13.256,5.013-31.706,1.623-46.137Zm214.208-42.833c1.843,12.457,7.831,26.337,16.817,35.638,3.875,4.011,7.27,9.241,11.672,12.748,5.749,4.58,10.376,2.233,17.048,2.944,7.166.762,11.81,5.438,19.447,4.169,5.44-.9,10.451-3.917,15.564-4.831,5.584-1,10.459-.407,16.011-3.172,6.867-3.418,12.346-10.145,17.686-15.253-2.811-2.226-8.487-2.386-12.083-3.589-4.75-1.59-9.494-3.165-14.271-4.688-9.865-3.145-19.7-6.357-29.588-9.449C585.842,416.674,565.963,411.08,546.366,408.046Z" transform="translate(-163 -1)" fill="#f6550f" fill-rule="evenodd"/><g transform="translate(68 18)"><path d="M18.133,82.492l.615,4.13C12.737,87.658,12.56,84.028,18.133,82.492Zm26.157-7.12c3.223-1.124,8.494.524,5.96,4.373C46.673,85.179,45.044,78.084,44.29,75.372Zm259.9,150.507c-.485-.484,5.227-11.4,5.964-13.229,3.687,2.1,3.937,1.6,2.435,5.113-1.3,3.037-5.813,6.114-8.4,8.115Zm336.8,2.994c1.761-.154,5.267-1.2,6.762-.591,2.089.856,1.527,2.838,1.78,5.73-6.11-.285-6.965.524-8.543-5.14Zm7.922-5.992-8.958,1.608c-.638-3.42-2.326-9.076,3.97-7.011.591.193,4.23,4.289,4.987,5.4Zm-351.783,7.032c3.176,3.155-11.566,9.836-13.086,7.7-3.318-4.673,10.941-7,13.085-7.7Zm-72.922-37.3-5.349-.526c.616-2.6,2.493-12.188,6.394-11.673,3.875.509-.5,10.17-1.046,12.2Zm-6.507,15.65c-.05-2.16-.935-6.95-.09-9.031.575-1.414,2.939-5.709,6.336-2.918.723.594,1.054,9.244.834,9.524-.925,1.177-5.76,1.973-7.08,2.425Zm18.432,27.743c3.66-2.8,11.618-6.926,15.142-.6,4.914,8.819-11.965,2.925-15.141.6Zm20.922.735a56.9,56.9,0,0,0,14.526.443c5.451-.382,6.743-2.046,8.33,3.174-5.846,2.119-18.3,3.589-24.212,1.573q.678-2.595,1.357-5.19Zm-30.312-23.959c1.684,3.448,5.328,7.964,6.31,11.561.722,2.652,1.006,1.327.4,3.385-.216.734-3.175,3.808-3.693,4.551-3.593-2.72-7.926-5.5-9.766-9.689-2.944-6.709.844-7.247,6.75-9.808ZM308.5,198.663c12.22,3.8,27.229,7.525,40.164,6.393.17,1.107-21.938,7.55-24.581,7.085-2.7-.475-2.916-4.239-6.152-6.248-3.568-2.215-6.515-.9-10.459-1.242Q307.983,201.657,308.5,198.663Zm-40.226,51.21a77.134,77.134,0,0,0,31.247-8.525c5.714-2.939,9.819-7.2,13.639-12.12,2.958-3.81,2.353-3.5,7-4.789,3.432-.953,7.653-.567,11.177-1.009,11.8-1.484,23.557-5.06,34.779-8.782,12.593-4.176,23.441-10.066,37.274-9.722,23.752.591,43.017,18.567,67.794,11.017,9.831-2.995,20.013-6.971,27.964-13.392,10.339-8.352,16.618-13.3,31.188-10.341,11.731,2.381,20.731,8.6,30.782,14.326,11.454,6.53,23.954,10.442,36.726,13.891a68.344,68.344,0,0,0,14.88,2.4c3.119.157,17.9-2.092,19.725-.5,1.766,1.536,2.569,12.135,2.381,14.068-.314,3.228,1.111,3.561-2.338,4.921-2.4.944-9.79-.011-12.758.327-23.881,2.728-48.347,3.545-71.846,7.66-22.085,3.867-44.249,7-66.086,11.531-28.406,5.9-57.336,8.593-85.757,14.307-13.738,2.761-27.593,6.651-41.17,9.593-12.363,2.677-24.785,5.162-37.219,7.588.456-1.708,3.04-7.932-1.085-7.358-2.615.363-7,9.39-8.38,11.421a117.369,117.369,0,0,1-21.739,23.889q-13.051,11.25-26.3,22.283c-7.215,6.013-22.715,14.982-22.315,25.483,4.4.836,13.121-6.949,16.411-9.058,6.658-4.27,13.042-8.922,19.25-13.778,5.84,8.545-8,18.45-9.575,26.532,3.56.015,9.505-9.782,11.666-12.378,5.739,5.349,12.18,10.066,16.312,16.785-46.308-1.976-53.9,55.457-87.327,74.926a35.6,35.6,0,0,1-25.152,4.2c-8.82-1.972-17.3-4.757-25.057-9.74-17.33-11.128-30.03-32.523-36.812-50.9-3.745-10.147-7.279-19.975-8.974-30.652-1.876-11.823-.112-23.84,1.416-35.621,2.72-20.992,13.878-42.184,29.68-57.2,7.083-6.729,14.819-12.619,21.3-19.965,2.263-2.564,7.428-12.382,10.268-13,5.233-1.134,7.934,6.21,11.555.2,3.546-5.884-3.218-8.18-7.336-10.921-4.443-2.959-8.752-6.071-13.094-9.16-8.585-6.109-17.084-12.116-25.33-18.62C96.83,167.98,61.286,132.625,25.278,96.59c6.742-1.6,16.329-6.181,23.183-4.958s12.947,6.076,20.176,6.88c7.042.783,13.88-.737,20.41-2.951,7.7-2.61,12.908-5.968,19.366.544,10.376,10.464,16.086,25,26.978,34.9,11.008,10.006,26.416,15.85,40.749,18.868,13.271,2.794,31.675,1.474,41.4,11.921,2.189,2.35,4.141,4.023,4.266,7.536.219,6.247-1.2,1.77-3.205,5.639-3.272,6.3-4.551,14.156-5.289,21.116-1.492,14.088.392,29.519,11.679,39.229,12.158,10.461,27.2,14.864,43.274,14.559Zm.643-22.817c-8.232,4.2-24.878-1.274-31.457-6.4-8.952-6.969-9.659-19.1-8.225-29.239l12.491,3.023,5.325,1.289a7.177,7.177,0,0,0,.723,4.113c3.922,5.026,5.823,2.529,10.082-1.83,9.116-9.331,17.2-19.85,20.922-32.254,4.165,4.865,8.868,8,15.542,7.326,2.924-.3,14.137-3.786,11.242-8.9-.92-1.627-10.038.422-13.093.268-6.379-.323-9.381-.2-11.715-6.2-1.944-5-1.257-7.048,4.74-7.963,7.614-1.163,7.832,3.358,13.257,5.478,13.775,5.385,4.369-16.056,6.335-22.1-6.771-2-13.919-3.4-19.907-7.215,6.634.761,12.943,2.977,19.368,4.59-.547-7.907-16.235-9.59-22.1-12.074,6.339-.843,12.364,3.33,18.727,3.067,5.945-.245,14.282-2.743,20.018-4.645,5.9-1.955,10.524-7.4,16.215-2.661,3.73,3.109,8.736,11.58,9.931,16.088-3.712-.535-12.456-1.257-13.487,2.956-1.325,5.411,9.6,2.262,12.966,3.148,5.111,1.346,3.544,2.831,5.4,7.881A17.88,17.88,0,0,0,362.5,155.824c-5.764,3.1-7.351,3.045-6.189,8.782,1.142,5.641.388,11.978-.17,18.256a38.284,38.284,0,0,0-10.807-2.225c-.717,4.554,6.439,6.481,10.125,6.747-1.935,5.994-2.007,5.8-8.627,5.787-3.708-.011-7.428-.224-11.127-.4-7.531-.366-14.84-1.71-22.268-2.9-2.835-.457-6.851-2.005-9.673-1.694-5.174.568-4.168,1.127-3.313,5.535,1.158,5.976-.147,10.5-1.648,16.985,8.855-3.018,1.743,6.217-2.435,8.118-8.231,3.736-18.3,7.742-27.455,8.241ZM753.16,588.225c-6.267,3.127-12.188,6.073-17.9,10.074-5.682,3.981-11.742,10.675-18.934,11.961-8.6,1.538-10.674-2.926-12.8-9.518-2.392-7.414-4.582-10.779-11.382-14.846-12.034-7.2-26.13-11.938-39.281-17.118-5.031-1.98-5.409-1.6-3.921-6.7.9-3.077,2-6.1,3.174-9.089,2.177-5.515,4.562-11.356,8.2-16.168,20.854,13.691,45.726,29.561,71.4,32.854,10.424,1.337,20.7,3.682,30.921,4.571a37.061,37.061,0,0,1,13.668,3.9c4.993,2.436,13.252,3.3,16.848,7.3C779.657,585.356,766.507,587.079,753.16,588.225ZM241.717,606.17c4.18,1.721-1.465,11.6-2.67,15.708-1.812,6.177-3.525,12.38-5.352,18.553-3.868,13.069-7.513,26.192-11.183,39.313-24.188-13.127-50.069-20.639-76.932-26.919-26.763-6.257-54.1-10.71-81.446-14.992-14.943-2.342-30.617-5.539-44.454-11.627-8.6-3.785-6.921-7.279-6.781-15.661.133-7.867,1.37-15.887,2.575-23.678,2.279-14.719,4.686-30.767,10.631-44.6,5.793-13.475,13.543-26.432,21-39.124,8.844-15.061,16.376-31.279,27.916-44.65C87.047,444.559,99.952,431.92,113,418.949c7.808,14.806,18.949,32.764,33.35,42.085,15.844,10.252,40.768,15.523,58.785,6.942C223.278,459.333,234,441.6,245.3,426.156c10.891-14.889,20.353-30.995,39.653-36.307,20.411-5.619,41.9,2.029,61.8,6.821,22.691,5.463,44.893,13.3,66.948,20.7,38.3,12.865,76.28,24.63,113.6,39.952,45.936,18.857,91.933,37.566,136.331,59.642-9.6,13.734-17.051,26.249-22.476,42.046a154.127,154.127,0,0,0-7.794,38.624c-5.168-5.142-9.116-11.257-14.332-16.461-5.9-5.888-12.827-10.419-19.768-15.034a286.327,286.327,0,0,0-39.3-22.275c-31.458-14.425-64.886-24.36-98.146-34.641-7.535-2.329-16.4-5.035-24.214-6.325-6.636-1.1-12.531-3.018-19.286-4.616-15.319-3.619-30.809-6.94-46.261-9.562-29.688-5.037-59.982-10.4-90.083-13.887-20.41-2.361-41.71-6.19-62.68-4.145-3.544.346-7.014,1.045-10.583.935-.995-.031-2.178-1.5-3.208-1.4-1.981.2-4.1,2.411-6.123,3.072-4.563,1.491-11.191.565-13.676,4.322-1.991,3.009-1.262,5.392,1.7,7.375-3.568,4.531-10.55,8.706-15.333,12.269-4.3,3.2-8.352,6.649-12.687,9.737-4.657,3.317-10.3,6.448-15.176,9.833-6.362,4.415-11.8,10.071-17.806,15.024-10.785,8.89-21.608,16.633-32.973,24.966a171.256,171.256,0,0,1-18.6,12.386c-3.636,2.008-11.876,7.508-7.575,12.5s12.9-2.385,17.587-2.915c5.4-.612,12.673,2.758,18.055,3.549,14.242,2.092,28.529,3.932,42.776,6.193,16.262,2.58,32.354,6.064,48.692,8.208,8.438,1.107,16.874,2.176,25.358,2.939,4.375.394,10.56-.2,14.671,1.2q4.667-1.356,4.061,2.651a6.161,6.161,0,0,0,3.266,2.638ZM692.346,234.043c-8.9-.057-17.724.456-26.632.379-3.429-.03-6.381.663-7.769-1.705-1.7-2.894-.914-10.453-1.2-13.766a176.382,176.382,0,0,0,30.331.182c11.122-.973,21.917-4.146,33.081-4.833-2.379.9-5.1,5.814-3.551,8.2s4.068.231,6.514-.846c9.444-4.159,17.31-10.3,27.919-7.617C741.271,219.074,732,227.152,721.8,230.16,712.18,233,702.477,233.967,692.346,234.043ZM31.51,70.269c-4.331.809-12.78,5.13-16.665,2.953-4.744-2.66-3.747-13.443-3.92-17.641-.53-12.9-1.512-30.651,8.635-41.108,1.841,12.4-2.139,25.358-1.854,37.891.215,9.4,3.768,4.269,5.025-2.388,1.15-6.09,1.024-12.1,2.592-18.157C28.2,36.726,28.871,43.385,30.9,48.8c2.56,6.831,6.182,13.027,9.832,19.359Q36.107,69.167,31.51,70.269ZM650.1,239.777c.053,3.612.568,7.007-3.954,7.339-5.987.438-4.023-5.661-3.643-9.51C644.652,237.9,649.586,237.3,650.1,239.777ZM34.012,76.163c3.754-.464,4.324-1.312,6.7,1.311,1.512,1.665,1.659,4.685.347,5.734C35.375,87.758,34.478,78.717,34.012,76.163ZM30.5,84.54c-2.922.574-5.781,2.129-7.423-.767-2.407-4.247,3.347-4.6,6.5-5.863Q30.041,81.223,30.5,84.54Zm183.576,399.6c32.3-.763,64.124,4.3,95.83,9.869,28.045,4.927,55.884,9.033,83.313,15.216,55.277,12.462,110.647,26.407,161.955,50.394,12.465,5.827,24.913,11.651,36.4,18.739,6.175,3.809,12.465,7.575,18.312,11.871,3.216,2.362,6.544,4.693,9.559,7.282,2.762,2.372,4.329,5.644,6.81,7.964,1.168,1.093,6.2,5.129,7.692,5.583,3.206.976,1.936,1.054,5.177-1.162,6.774-4.63,8.132-10.8,10.174-18.226,1.437-5.226.334-6.958,5.055-6.78,2.4.091,6.018,2.532,8.244,3.456,7.191,2.985,14.961,5.363,21.862,8.924,5.579,2.878,10.043,6.58,12.433,12.28,2.822,6.73,4.462,12.225,13.024,12.98,15.272,1.346,24.047-13.878,37.106-19,13.967-5.48,31.792-4.4,46.539-4.578a111.333,111.333,0,0,1,16.342,1.176c7.239,1.023,15.8,4.954,23.316,2.455,8.647-2.876,8.517-15.159,2.787-20.505-5.99-5.588-14.879-6.354-22.541-8.209-15.489-3.749-29.577-12.295-45.388-14.92-15.727-2.611-32.391-3.179-47.723-7.937-7.813-2.426-15.4-4.318-22.828-7.73-9.249-4.252-19.211-7.018-28.347-11.2,3.144-5.522,3.995-10.647,4.187-16.834.127-4.129.8-4.132-2.068-5.862l-1.7.884q-2.7,1.918-3.852-1.754c-12.68-7.691-24.4-15.953-37.93-22.633-22.693-11.2-46.716-20.256-69.4-30.929-43.1-20.276-91.106-31.975-136.449-46.829-27.429-8.986-55.515-16.347-83.62-22.974-4.926-1.162-9.837-2.124-14.845-2.9-8.483-1.306-6.477-1.384-10.756-7.909-5.49-8.373-14.2-17.306-23.05-22.494-5.455-3.2-7.782-2.72-7.611-9.72.129-5.349,1.6-5.3,5.972-8.877a115.548,115.548,0,0,0,13.722-13.325c4.77-5.452,6.906-11.632,10.9-17.236,4.824-6.774,19.743-5.624,28.094-6.8,13.08-1.846,26.377-3.167,39.261-6.019,26.019-5.758,52.174-7.772,78.517-11.8,26.481-4.047,52.954-7.737,79.437-11.4,9.507-1.316,19.136-2.447,28.591-4.078,13.236-2.285,27.165-2.516,40.594-4.653,6.914-1.1,15.382-5.005,22.337-4.672,7.465.359.79.274,5.7,2.841a18.378,18.378,0,0,0,7.293,2.317,12.725,12.725,0,0,0,10.479-4.557c4.08-5.09,2.113-8.99,10.426-9.632,5.473-.422,11.86,1.689,17.421,1.967,5.449.273,11.115,1.063,16.566.9,10.9-.322,23.893-1.28,33.792-5.939,10.491-4.937,19.853-11.523,30.889-15.721,5.538-2.108,13.417-3,17.13-8.1,3.1-4.253,4.058-12.9-.694-16.392-7.29-5.35-21.424,2.746-29.49.724-4.124-1.034-.719-2.279-3.838-3.72-1.933-.893-1.643-1.027-3.936-1.35-5.653-.8-14.912,3.158-20.659,4.1-11.341,1.853-22.583,4.682-33.914,6.415-6.47.99-13.048,1.238-19.532,2.29-5.647.917-10.288,3.129-14.386-1.406-1.728-1.913-1.2-3.885-3.97-4.883-2.484-.893-9.619.389-12.019,1.309-2.621,1.005-3.207,2.454-5.316,3.6q-.079,3.252-2.735,1.945a19.25,19.25,0,0,0-4.926.263c-14.394.06-28.72-4.406-41.811-9.68-21.694-8.738-48.63-33.476-73.513-20.02-6.122,3.31-10.14,8.831-16.1,12.418a84.1,84.1,0,0,1-18.021,7.833c-11.9,3.589-23.725,3.14-35.511-.576-14.371-4.533-25.945-9.28-41.433-8.759-14.35.482-25.8,10.388-39.858,10.783,3.434-5.515,4.07-11.85,4.433-18.106.237-4.092-2.048-14.8.428-18.114,2.733-3.658,24.077-5.137,12.173-15.875-3.9-3.517-11.088-2.243-15.117-6.126-4.067-3.918-4.147-10.046-6.316-14.938-2.453-5.535-6.5-10.107-10.648-14.524a17.646,17.646,0,0,1-3.942-5.305c-1.161-2.609-.388-4.813-2.242-7.562-6.262-9.278-17.185-6.048-26.691-4.812-5.763.749-12.743.035-18.336,1.607-4.495,1.264-10.341,5.1-14,7.909-8.057,6.195-9.929,17.628-10.55,27-.363,5.484.7,10.652.792,16.117.093,5.72,2.576,8.312,7.042,12.106a2.284,2.284,0,0,1,1.55-2.125q2.918,3.589-1.5,2.8a6.943,6.943,0,0,1-1.531,3.858c-2.433,2.7-4.529,5.688-6.9,8.443-5.184,6.024-11.231,11.252-15.22,18.089-4.182-4.866-9.505-5.664-14.494-9.02-4.853-3.265-1.229-4.237-3.029-8.956-.723-1.891-2.618-2.225-3.284-3.689-.632-1.388.137-2.264-.252-3.789-1.942-7.572-1.136-12.263-7.184-18.2-8.089-7.939-18.057-10.038-29.178-11.545-11.1-1.505-18.973-2.041-28.837-6.424-3.421-1.521-6.658-2.215-9.909-3.94a71.9,71.9,0,0,1-12.3-7.944c-8.873-7.318-14.391-17.514-21.565-26.308-5.744-7.037-12.669-16.047-23.036-14.189-11.79,2.114-22.179,9.28-34.73,5.416-4.656-1.432-4.153-.552-6-5.066-.614-1.5-1.011-3.018-1.608-4.5C53.325,69,49.039,68.3,46.381,63.8,40.108,53.18,36.671,39.921,33.1,28.253c-1.66-5.419-4.875-10.118-6.835-15.314-.819-2.173-.448-11.849-2.992-12.7C15.064-2.5,8.422,19,6.925,23.062,3.014,33.685-.431,45.673,1.113,57.046c.635,4.687,1.141,10.116,2.395,14.7,1.14,4.166,1.386,3.892.734,7.668-.662,3.84-1.45,6.142-.882,10.168.159,1.124.671,5.278,1.155,5.853,2.249,2.676,2.554.805,5.353,1.875,4.526,1.729,5.645,3.216,8.849,7.272,8.013,10.139,16.377,20.309,25.036,29.935a574.286,574.286,0,0,0,48.215,47.041C108.7,196.3,126.2,211.256,145.2,223.3c4.616,2.927,12.205,5.494,15.92,9.333,4.069,4.205-2.1,6.029-6.271,9.012-8.289,5.924-16.812,11.99-24.04,18.9C115.4,275.27,106.6,296.966,101.2,316.669c-2.81,10.253-3.386,22.007-4.45,32.626a94.171,94.171,0,0,0,4.226,37.936c1.49,4.494,3.244,8.9,4.689,13.409.666,2.078,3.935,8.531,3.048,10.929-1.465,3.962-11.1,8.775-14.459,11.529A103.4,103.4,0,0,0,81.1,435.239a351.625,351.625,0,0,0-41.823,61.1c-12.242,22.341-23.8,42.5-28.627,67.608-1.262,6.562-2.385,13.13-3.712,19.681-1.426,7.049-.047,17.218-2.9,23.658C2.274,611.27-1.03,612.524.316,618.032,1.478,622.789,7.388,631.244,10.6,635c7.315,8.539,20.67,11.9,31.214,15,12.8,3.757,26.485,5.489,39.662,7.626,47.468,7.7,93.989,16.1,137.925,35.833-1.478,2.155-2.671,6.81.329,8.294,3.985,1.971,5.941-3.882,7.312-6.469,3.99-7.528,5.179-17.263,7.563-25.511,5.814-20.123,10.229-40.455,14.964-60.8,16.158,3.4,32.518,5.208,48.592,8.362,7.414,1.455,14.927,1.591,22.393,2.509,8.017.985,8.53,3.508,7.9,11.159-1.395,16.869-8.13,33.053-11.972,49.457-1.865,7.956-5.127,15.532-6.9,23.45-.577,2.579.049,9.519-1.769,11.443.078-.082-6.122,1.148-7.1,1.4.526-9.965-.64-19.742-.142-29.688.512-10.276,1.917-23.751-.38-33.7-2.089-9.049-10.059-18.617-18.856-22.435-7.663-3.328-22.873-8.665-31.147-3.732-1.454.867-4.956,3.556-4.139,5.639,1.1,2.815,13.351,4.972,15.838,5.844,9.736,3.411,20.031,9.389,25.485,18.056,4.907,7.8,2.946,19.853,2.782,28.795-.092,5.083-.749,9.8-.135,14.868.871,7.167,1.325,9.762-1.606,15.949-3.434,7.249-1.312,17.842,8.975,15.235,6.153-1.559,6.4-4.916,10.1-8.568,1.4-1.382,2.977-.77,4.35-2.513,1.84-2.337,1.831-7.508,2.762-10.458,2.98-9.441,7.2-18.62,10.351-28.119,4.238-12.771,7.707-25.7,10.745-38.775,2.361-10.166,4.921-20.46.013-30.353-4.356-8.782-15.026-8.129-23.873-8.445-20.488-.73-41.665-5.172-62.569-6.244-1.5-.078-4.642.437-5.991-.19-1.863-.865-2.567-3.382-4.978-4.99-4.607-3.075-13.72-4.144-19.045-5.088-12.075-2.144-24.087-3.885-36.09-6.12-13.8-2.571-27.472-5.643-41.287-7.98-13.226-2.238-26.586-2.659-39.969-4.18,21.233-13.7,39.933-30.389,60.362-45.226a272.654,272.654,0,0,0,26.754-21.6c3.541-3.312,7.043-6.533,10.258-10.143,1.7-1.914,3.209-5.571,5.376-6.906,2.725-1.692,5.831-1.243,9.422-1.542Z" fill-rule="evenodd"/><path d="M22,.221c-7.051,0-15.073-.66-22,.3,6.045.006,16.331,1.246,22-.3" transform="translate(313.954 96.893) rotate(175)" fill-rule="evenodd"/><path d="M9,0,0,.006A20.283,20.283,0,0,0,9,0" transform="translate(687.017 207.552) rotate(175)" fill-rule="evenodd"/><path d="M0,0C2,0,4.009.006,6,.006,3.992,0,2,0,0,0" transform="translate(494.021 273.372) rotate(175)" fill-rule="evenodd"/><path d="M.349,0Q.175,3.5,0,7,.176,3.5.349,0" transform="translate(290.9 686.143) rotate(175)" fill-rule="evenodd"/><path d="M0,5Q.165,2.5.332,0,.165,2.5,0,5" transform="translate(301.949 709.267) rotate(175)" fill-rule="evenodd"/><path d="M6,.533,0,0Q3,.268,6,.533" transform="translate(262.888 626.122) rotate(175)" fill-rule="evenodd"/><path d="M0,.157,4,0,0,.157" transform="translate(542.579 266.188) rotate(175)" fill-rule="evenodd"/><path d="M5,.02,0,0,5,.02" transform="translate(322.878 95.62) rotate(175)" fill-rule="evenodd"/><path d="M0,5Q.147,2.5.293,0,.146,2.5,0,5" transform="translate(301.656 683.194) rotate(175)" fill-rule="evenodd"/><path d="M0,.052C1.337.034,2.675.016,4,0L0,.052" transform="translate(550.544 265.439) rotate(175)" fill-rule="evenodd"/><path d="M0,.021,4,0,0,.021" transform="translate(529.71 268.25) rotate(175)" fill-rule="evenodd"/><path d="M5,.467,0,0,5,.467" transform="translate(317.19 604.273) rotate(175)" fill-rule="evenodd"/><path d="M0,0C1,.006,2.007.012,3,.015,1.993.008,1,0,0,0" transform="translate(370.195 292.241) rotate(175)" fill-rule="evenodd"/><path d="M0,4H0" transform="translate(300.913 699.319) rotate(175)" fill-rule="evenodd"/><path d="M0,0C1,0,2.007.009,3,.01,1.993,0,1,0,0,0" transform="translate(214.364 484.552) rotate(175)" fill-rule="evenodd"/><path d="M5,.477,0,0,5,.477" transform="translate(527.775 177.301) rotate(175)" fill-rule="evenodd"/><path d="M4,0,0,.4,4,0" transform="translate(722.526 200.373) rotate(175)" fill-rule="evenodd"/><path d="M4,0,0,.557Z" transform="translate(699.796 204.45) rotate(175)" fill-rule="evenodd"/><path d="M4,0,0,.416,4,0" transform="translate(752.762 201.753) rotate(175)" fill-rule="evenodd"/><path d="M0,.083C.67.055,1.34.026,2,0L0,.083" transform="translate(228.401 484.364) rotate(175)" fill-rule="evenodd"/><path d="M0,.133C.67.089,1.34.045,2,0L0,.133" transform="translate(366.104 165.174) rotate(175)" fill-rule="evenodd"/><path d="M4,.589,0,0,4,.589" transform="translate(145.913 574.148) rotate(175)" fill-rule="evenodd"/><path d="M0,0H0" transform="translate(97.768 373.789) rotate(175)" fill-rule="evenodd"/><path d="M0,0H0" transform="translate(335.414 296.283) rotate(175)" fill-rule="evenodd"/><path d="M0,0C.67.014,1.338.028,2,.04,1.328.025.664.013,0,0" transform="translate(607.151 258.472) rotate(175)" fill-rule="evenodd"/><path d="M0,.734A39.865,39.865,0,0,0,9,.195C6.093.163,2.706-.47,0,.734" transform="translate(711.297 232.648) rotate(175)" fill-rule="evenodd"/><path d="M0,0A13.994,13.994,0,0,0,8,.114Q4,.059,0,0" transform="translate(679.24 233.394) rotate(175)" fill-rule="evenodd"/><path d="M0,.647,7,.67A9.677,9.677,0,0,0,0,.647" transform="translate(269.223 228.126) rotate(175)" fill-rule="evenodd"/><path d="M5,0C3.33.065,1.659.13,0,.2L5,0" transform="translate(39.034 75.372) rotate(175)" fill-rule="evenodd"/><path d="M0,0C2,1.157,4,.649,6,.01L0,0" transform="translate(759.433 587.776) rotate(175)" fill-rule="evenodd"/><path d="M0,5,.342,0,0,5" transform="translate(635.183 238.432) rotate(175)" fill-rule="evenodd"/><path d="M0,0,5,.453,0,0" transform="translate(697.337 233.724) rotate(175)" fill-rule="evenodd"/><path d="M4,.091C2.661.06,1.324.028,0,0,1.341.032,2.67.062,4,.091" transform="translate(272.11 249.666) rotate(175)" fill-rule="evenodd"/><path d="M0,5Q.216,2.5.429,0,.213,2.5,0,5" transform="translate(638.35 572.426) rotate(175)" fill-rule="evenodd"/><path d="M0,.479,5,0,0,.479" transform="translate(349.593 286.246) rotate(175)" fill-rule="evenodd"/><path d="M4,.136C2.663.092,1.326.047,0,0,1.342.043,2.672.09,4,.136" transform="translate(694.024 218.797) rotate(175)" fill-rule="evenodd"/><path d="M0,.724,5,.253C3.315.184,1.581-.5,0,.724" transform="translate(360.475 284.413) rotate(175)" fill-rule="evenodd"/><path d="M3,.1,0,0,3,.1" transform="translate(677.088 220.261) rotate(175)" fill-rule="evenodd"/><path d="M0,.5,5,0,0,.5" transform="translate(387.014 277.962) rotate(175)" fill-rule="evenodd"/><path d="M0,.511,5,0,0,.511" transform="translate(30.866 85.278) rotate(175)" fill-rule="evenodd"/><path d="M0,.056,5,0,0,.056" transform="translate(447.326 267.444) rotate(175)" fill-rule="evenodd"/><path d="M0,.482,5,0,0,.482" transform="translate(31.637 71.143) rotate(175)" fill-rule="evenodd"/><path d="M0,.659l5,.1a4.764,4.764,0,0,0-5-.1" transform="translate(634.765 241.359) rotate(175)" fill-rule="evenodd"/><path d="M0,0C.008,1.334.016,2.67.023,4Q.013,1.993,0,0" transform="translate(305.174 139.821) rotate(175)" fill-rule="evenodd"/><path d="M0,0Q.01,2,.021,4C.014,2.662.007,1.331,0,0" transform="translate(305.609 144.802) rotate(175)" fill-rule="evenodd"/><path d="M3,.068,0,0,3,.068" transform="translate(303.24 387.466) rotate(175)" fill-rule="evenodd"/><path d="M.112,4Q.057,2,0,0,.057,2.005.112,4" transform="translate(213.643 206.051) rotate(175)" fill-rule="evenodd"/><path d="M0,0,5,.493,0,0" transform="translate(191.759 455.654) rotate(175)" fill-rule="evenodd"/><path d="M0,0A3.42,3.42,0,0,0,4,0H0" transform="translate(303.852 187.944) rotate(175)" fill-rule="evenodd"/><path d="M2,0,0,.138,2,0" transform="translate(294.553 173.444) rotate(175)" fill-rule="evenodd"/><path d="M0,.459,4,0,0,.459" transform="translate(286.185 376.104) rotate(175)" fill-rule="evenodd"/><path d="M0,0,4,.442,0,0" transform="translate(331.547 481.543) rotate(175)" fill-rule="evenodd"/><path d="M0,0,4,.464,0,0" transform="translate(360.139 487.083) rotate(175)" fill-rule="evenodd"/><path d="M0,0,4,.551Z" transform="translate(372.358 489.068) rotate(175)" fill-rule="evenodd"/><path d="M0,0,4,.523,0,0" transform="translate(384.573 490.997) rotate(175)" fill-rule="evenodd"/><path d="M3,.121,0,0,3,.121" transform="translate(129.917 586.354) rotate(175)" fill-rule="evenodd"/><path d="M0,.452,4,0,0,.452" transform="translate(331.835 289.794) rotate(175)" fill-rule="evenodd"/><path d="M2,.063,0,0C.672.02,1.335.042,2,.063" transform="translate(86.122 97.284) rotate(175)" fill-rule="evenodd"/><path d="M2,0,0,.053,2,0" transform="translate(681.07 219.889) rotate(175)" fill-rule="evenodd"/><path d="M0,.465,4,0,0,.465" transform="translate(397.796 274.994) rotate(175)" fill-rule="evenodd"/><path d="M0,.385,4,0,0,.385" transform="translate(548.168 249.752) rotate(175)" fill-rule="evenodd"/><path d="M0,3Q.124,1.5.249,0,.125,1.5,0,3" transform="translate(650.603 243.106) rotate(175)" fill-rule="evenodd"/><path d="M0,0,4,.471,0,0" transform="translate(664.29 234.616) rotate(175)" fill-rule="evenodd"/><path d="M0,0C1.327.683,2.658,1.041,4,.031L0,0" transform="translate(627.7 240.923) rotate(175)" fill-rule="evenodd"/><path d="M44.864,38.872c4.862-.321,7.227-1.2,8.93-5.741.79-2.1-.59-6.313.113-7.622.937-1.738,2.015-.68,3.521-2.274,5.5-5.827,9.183-18.067-.117-23.235C53.3,4.1,54.112,9.333,56.2,14.111c-5.331.749-8.057.694-10.129,5.784-.248.611-1.313,8.26-1.487,8.413-1.179,1.033-5.455-.489-7.027.221C34.079,30.1,31.971,36.19,32.5,39.766c.727,4.93,5.616,7.845,9.26,10.894-12.425-1.4-23.051-11.8-35.449-13.519-3.446-.477-4.182-2.094-5.725,1.706C-.787,42.223.406,41.874,2.6,43.8c4.358,3.823,11.3,6.7,16.631,9.129,7.737,3.53,20.928,11.366,29.9,8.415,4.477-1.472,8.036-6.877,7.1-11.425-.913-4.437-8.1-8.145-11.372-11.052" transform="translate(215.205 356.487) rotate(175)" fill-rule="evenodd"/><path d="M19.218,32.687c4.05-5.242,6.128-10.972,2.786-17.172,5.441.928,11.455,2.463,15.46-2.185,5.79-6.717.66-9.533-5.321-10.468C27.34,2.111,18.023-1.847,13.5,1.04c-7.429,4.745-1.389,15.487.844,20.85C9.938,21.364-1.111,19.08.091,27.527c.866,6.088,14.7,5.776,19.127,5.16" transform="translate(184.112 287.936) rotate(175)" fill-rule="evenodd"/><path d="M615.071,293.161l4.331,5.1c-2.192.49-5.17-1.37-7.1-2.153Zm6.58-6.868c5.146-.722,10.7,6,11.885-1.512.693-4.4-3.43-10.043-8.278-10.72-8.456-1.181-20.278,17.993-22.392,24.6-1.948,6.091.129,5.25,4.6,7.506,3.872,1.953,8.907,6.487,13.934,5.114,4.6-1.256,6.015-8.618,5.994-12.455C627.364,292.914,623.808,291.01,621.651,286.293Z" transform="translate(-395.688)" fill-rule="evenodd"/><path d="M11.256,13.293C12.237,10.992,18.8.41,13.835,0,11.073-.224,4.47,15.3,3.567,17.059,2.327,19.479-.125,22.75,0,25.625c.224,4.972.085,3.4,3.463,3.153,6.583-.476,12.813-9.886,19.167-11.855C19.268,26.134,14.553,36.14,16.318,46c7.9-6.113,9.433-20,12.243-29.062.856-2.759,2.81-8.394-.1-10.57C25.166,3.906,13.738,12,11.256,13.293" transform="translate(212.142 298.533) rotate(175)" fill-rule="evenodd"/><path d="M589.3,306.689c-2.431-5.1-5.045-11.074,3.934-9.185Zm2.909-21.347c-7.7-.612-12.085,9.495-12.882,15.37-.636,4.685,4.239,21.037,10.814,16.1,2.45-1.839,3.827-6.866,5.43-9.408,2.2-3.481,5.269-6.8,6.936-10.542,3.526-7.927-2.8-11.5-10.3-11.52Z" transform="translate(-342.72)" fill-rule="evenodd"/><path d="M5,.5,0,0,5,.5" transform="translate(254.173 285.573) rotate(175)" fill-rule="evenodd"/><path d="M4,0,0,.555,4,0" transform="translate(165.364 257.231) rotate(175)" fill-rule="evenodd"/><path d="M4,0,0,.012A3.483,3.483,0,0,0,4,0" transform="translate(154.809 274.257) rotate(175)" fill-rule="evenodd"/><path d="M14.032,14C20.9,9.926,8.115-8.7,1.214,4.89c-1.926,3.794-1.86,8.72,2.4,8.066,1.919-.3,2.425-3.1,5.043-2.983,2.6.12,3.672,2.454,5.373,4.027" transform="translate(350.327 156.951) rotate(175)" fill-rule="evenodd"/><path d="M0,0C-.2,3.484,5.873,10.969,10.076,6.74S2.883.36,0,0" transform="translate(297.442 160.574) rotate(175)" fill-rule="evenodd"/></g></g></g></svg>