<svg xmlns="http://www.w3.org/2000/svg" width="917" height="707.997" viewBox="0 0 917 707.997"><g transform="translate(-54 -30)"><path d="M285.2,455.106c4.669-3.182,14.216-14.572,19.218-17.2,11.123-5.853,60.675-17.359,62.286-18.039,2.454-1.035,18.395-4.653,27.683-6.938,21.813-5.372,99.969-40.04,120.569-48.929,2.63,6.92,24.34,37.468,20.616,40.6-12.262,10.307-34.241,23.141-48.445,30.527a241.491,241.491,0,0,1-35.94,14.954c-13.947,4.584-23.519,9.5-37.419,14.186-13.675,4.613,2.668,19.04,9.691,22.02,7.877,3.345,20.078,5.042,28.127,7.94-14.171,22.025-26.072,48.756-28.453,75.139-.573,6.349-5.413,12.17-13.286,10.269-4.062-.981-41.546-5.973-47.658-7.367-40.8-9.3-114.052-58.034-95.189-108C271.321,466.262,281.187,457.844,285.2,455.106Z" fill="#f6a7ba" fill-rule="evenodd"/><g transform="translate(54 30)"><path d="M254.031,160c3.048-.257,10.93-6.346,6.794-9.426-4.172-3.107-7.17,7.306-6.794,9.426M95.245,183.353c.8-.141.449-4.5-.806-5.058-3.96-1.758-4.294,4.849-4.391,6.617-.12,2.231-.4,8.516,4.414,6.793,2.733-.978,1.037-6.68.782-8.352M329,203.723c-.107,3.892,7.756,11.376,10.687,6.887,2.466-3.772-10.485-14.635-10.687-6.887M51,115.944c2.278,5.812,13.545-2.109,13.964-6.371.86-8.73-14.081.563-13.964,6.371M145,141c5.247-.431,12.151-7.1,17.211-9.594,3.424-1.686,12.741-3.7,13.754-7.525.882-3.327-14.926,3.794-16.276,4.427-6.2,2.9-11.792,6.217-14.689,12.692M538.9,95a23.152,23.152,0,0,1,14.627-5.183c2.677.068,8.262,1.743,8.472-2.887.342-7.529-23.3,1.653-27,3.13L538.9,95M278,388.387c-3.068-5.1-8.586-8.041-12.736-12.387,1.521,7.137-1.908,13.485-4.264,20l17-7.613M810.8,497c1.691-5.659,3.384-11.286,5.361-16.858,2.212-6.24,3.312-6.779-1.983-11.142L801,493.918A38.59,38.59,0,0,0,810.8,497M356,87.365c-5.818-6.558-33.086-6.97-29.712,7.5,1.178,5.054,7.882-.315,12.081-1.493,4.168-1.17,15.97-1.325,17.631-6.011m-1,92.85c-.7-1.674-2.113-7.715-4.2-8.191-2.036-.464-10.07,5.872-11.58,6.839C331.683,183.69,324.34,188.883,317,194c2.811,0,5.363-1,8.157-1.022,3.32-.029,5.7,1.335,8.938.557,6.955-1.67,15.027-9.377,20.9-13.32M362.536,30.57c.653-3,34.745,6.005,38.842,7.654,2.232.9,13.75,6.884,11.275-2.139-1.409-5.139-14.718-9.057-18.983-10.465-10.843-3.579-22.275-6.125-33.82-5.534-2.242.114-19.221,1.094-12.131,7.918,2.443,2.35,11.2,1.609,14.817,2.567M370,442.713a199.814,199.814,0,0,0,19.476,7.959c2.949,1.086,7.544,3.928,10.8,3.214,2.665-.586,3.519-4.644,4.919-7.36A115.255,115.255,0,0,1,424,420.377c-3.519-2.566-21.381,8.754-25.8,10.425s-8.6,3.358-12.93,5.357c-4.077,1.882-12.122,3.565-15.269,6.554M482.463,358c9.257-4.189,18.031-11.617,25.623-18.268C516.8,332.1,524.618,324.093,531,314.211c-3.84.2-12.318,12.548-12.413-.9-.049-6.86,9.352-13.617,12.27-19.98-7.258-4.1-13.911,20.388-22.239,14.453-8.023-5.719,4.636-25.382,7.075-31.586-4.706-3.131-31.518,31.915-35.4,36.4-2.427,2.807-8.167,6.544-9.537,9.818-.816,1.95-.933,8.135-.538,9.928.821,3.749,4.98,8.239,6.832,11.73A53.209,53.209,0,0,1,482.463,358M865.155,484.352c-8.005-11.3.264-16.227,6.773-25.6a121.467,121.467,0,0,0,13.3-24.149c8.253-20.953,15.7-40.433,19.776-62.6-5.609,2.561-9.116,12.306-11.922,17.441-3.774,6.9-7.093,14.15-11.287,20.839C873.942,422.8,866.237,436.148,856.254,447c-4.523,4.917-8.352,10.448-13.571,14.878-2.384,2.024-6.945,3.685-8.7,6.216-1.658,2.389.2,3.916-.433,6.77-.646,2.928-3.608,6.05-4.879,8.869-1.669,3.7-3.224,7.415-5.087,11.036a26.007,26.007,0,0,0-3.135,9.873c-.6,4.22,1.237,4.658-2.448,8.546l20.033,8.833q3.379,1.492,6.761,2.982l1.425-2.672c1.835-1.782,3.523-6.177,4.572-8.532,4.388-9.824,9.343-19.687,14.365-29.444M220.32,436.919C201.359,486.838,267.988,528.87,309,538.166c5.681,1.287,11.225,2.972,16.88,4.355,6.166,1.507,11.641,1.207,17.8,1.838,4.9.5,7.23,4.284,11.844,5.327,7.71,1.742,7.239-4.053,7.791-10.261,2.341-26.325,15.776-51.724,29.995-73.69-6.495-2.324-12.931-4.86-19.343-7.4-5.487-2.178-13.888-8.3-19.787-8.624-4.362-.238-11.01,3.487-15.247,5.122a185.574,185.574,0,0,1-21.487,6.9c-12.86,3.247-27.17,7.673-40.477,8.008-3.837.1-14.361,1.884-17.121-.487-5.264-4.521,2.042-8.289,6.449-9.9,26.265-9.618,54.152-13.707,80.491-23.568,13.554-5.075,26.968-10.742,40.607-15.742,11.757-4.309,24.071-8.124,35.433-13.425,15.005-7,30.074-15.716,43.067-25.987,2.6-2.055,8.05-5.108,9.832-8.086,1.57-2.622,1.374-.007,1.048-3.186-.234-2.283-3.028-5.378-4.177-7.535A220.091,220.091,0,0,1,461.192,337c-20.726,8.89-40.444,20.99-60.865,30.49-20.554,9.563-43.739,16.309-65.728,21.689-9.359,2.29-20.118,3.014-28.7,7.539-3.647,1.922-7.252,4.146-11.158,5.258q-1.731,3.319-3.408,1.3a3,3,0,0,0-2.719-1,38.123,38.123,0,0,0-7.06,2.4c-11.309,4.384-22.138,9.874-32.874,15.476-5.089,2.653-10.309,5.267-15.179,8.3a34.972,34.972,0,0,0-7.085,5.494c-2.561,2.675-1.951,4.874-6.1,2.971M646.979,140.53c4.792.078,9.159-2.518,14.156-2.373,7.857.227,14.077,6.319,18.637,12.194,9.024,11.624,6.723,25.647,2.19,38.656a75.171,75.171,0,0,1-8.867,17.627c-3.294,4.818-9.183,9.375-11.482,14.739-3.791,8.847,3.858,5.085,8.542,3.2a65.056,65.056,0,0,0,16.407-9.314c22.277-17.742,39.223-42.4,44.9-70.725,2.769-13.818,2.556-29.972-7.07-41.25-8.8-10.313-23.991-13.682-36.977-11.77-14.037,2.069-26.759,8.014-38.189,15.667-3.32,2.224-6.36,4.652-9.477,7.139-4.09,3.263-6.541,3.348-5.517,8.462.76,3.8,2.83,7.742,4.164,11.39,2.5,6.833,1.587,8.6,8.583,6.362m15.277,117.8-.97,1.657c6.684.318,12.909-5.578,18.6-8.456,7.4-3.741,13.967-8.844,20.45-14,11.432-9.089,23.014-19.332,31.523-31.264,19.077-26.747,36.405-60.658,31.2-94.57-5.61-36.549-37.578-50.618-71.641-45.78-15.351,2.18-29.056,9.034-42.794,15.991-6.925,3.508-12.769,8.058-19.113,12.463-3.292,2.287-6.3,2.583-6.511,6.582-.162,3.013,5.047,9.827,6.455,12.557,17.249-17.6,35.838-32.153,61.887-33.053,30.99-1.07,49.315,28.314,49.179,56.452-.133,27.6-12.035,54.139-31.008,73.971-8.622,9.013-16.843,16.245-27.431,22.823-5.278,3.279-9.171,6.223-15.072,8.4-4.174,1.541-3.739.729-4.8,4.593-.9,3.279.019,8.226.047,11.631M493.865,633.241a101.683,101.683,0,0,1-2.539,14.719c-.4,1.742-2.679,7.241-2.28,9.2.659,3.237-.218,1.156,2.618,2.844,2.958,1.763,6.4,1.657,9.641,2.192,2,.331,9.324,3.778,10.556,3.234,2.154-.952,2.086-4.308,4.449-5.638,3.22-1.814,7.965-.26,11,1.159,8.121,3.787,13.7,11.628,21.557,15.921,13.954,7.62,30.512,11.839,46.079,13.58,8.434.943,17.064,2.6,25.393.622,6.562-1.557,15.091-1.414,18.658-8.455-31.7-8.718-80.087-19.387-92.621-55.767-6.814,6.178-18.2,2.851-26.435,2-9.059-.938-17.154-.72-25.439-4.849a37.78,37.78,0,0,0-.639,9.241M213.184,407.923c14.923.9,29.071-6.161,38.254-18.076,2.261-2.935,4.579-5.93,5.936-9.407q.443-1.322.882-2.644,2.137-3.649-1.87-3.444c-1.505-2.064-5.321-2.758-4.235-6.5.817-2.822,3.834-2.868,6.456-3.756a24.26,24.26,0,0,0-3.956-5.246c-4.857,4.369-13.672,12.945-17.085,2.907-1.64-4.819,1.246-9.425.531-14.073-.294-1.923-2.731-6.834-4.144-7.983-7.523-6.125-18.358-3.59-26.34.015-5.5,2.485-6.685,3.651-7.582,9.347-.911,5.792-1.757,11.582-2.768,17.357,3.3-1.72,3.9-5.436,6.055-8.112l2.422,4.406a2.758,2.758,0,0,1,3.181.1c1.593,2.449.591,6.081.1,8.648,5.312-.495,7.557,5.431,2.2,7.831-5.547,2.486-8.049-4.292-8.237-8.682-2.07,2.472-4.2,1.149-5.639,2.419s-2.009,3.917-2.522,6.816c-.843,4.763-3,11.635-1,16.413,2.963,7.1,12.41,10.79,19.362,11.661M645.61,179.975c-4.937,6.867-13.356,15.856-15.117,24.152,5.439-3.191,16.938-18.548,19.9-6.315,1.7,7.022-7.021,15.389-9.164,22.188,8.577-2.822,14.686-11.66,20.038-18.481,6.824-8.7,13.791-20.161,15.533-31.22a15.654,15.654,0,0,0-14.023-18.167,44,44,0,0,0-14.184,1.393c-2.076.5-5.172,1.115-7.025,2.227-2.326,1.4-2.644,4.667-4.836,1.947L628,174.158c2.9-1.051,8.809-5.513,11.975-5.052,4.624.675,5.574,7.391,5.636,10.869M183.28,45.644a137.62,137.62,0,0,0-38.731,7.236c-3.043,1.018-15.882,4.641-13.178,9.892,1.787,3.471,11.422-1.434,14.335-2.252,12.484-3.506,25.338-5.818,38.125-7.928,3.1-.511,13.6-.46,14.141-4.519.664-4.952-11.036-2.435-14.692-2.43M535.593,610.466a84.162,84.162,0,0,1-20.777-.323C508.9,609.42,502.886,607,497,607c0,6.295-.427,6.335,6.215,7.682,4.636.941,9.338,1.469,14.023,2.125,8.249,1.153,17.406,4.391,25.756,2.727-.2-1.093-.842-8.47-1.707-9.2-.487-.41-4.991.139-5.7.132M422.19,144.677c1.962,1.25,6.472,6.235,8.809,6.323-.834-5.771-7.273-15.819-14.667-12.253-1.812.875-5.618,5.229-3.9,7.15.919,1.027,7.35-1.213,9.754-1.22m-68.409,51.34q.106-1.509.218-3.017c-2.713,1.6-6.072,2.35-8,4.92l6.944,3.08q.418-2.491.838-4.983m213.68,153.218c12.819,4.489,24.571,10.485,34.007,20.662,8.156,8.8,11.989,24.307,13.98,35.843,4.926,28.546-4.58,55.005-10.848,82.313-3.18,13.853-7.927,27.184-12.372,40.679-3.881,11.784-7.209,24.125-12.566,35.33-4.542,9.5-10.345,18.868-14.341,28.724-2.15,5.3-5.635,23.506-13.8,17.79-2.227,5.823-2.768,5.327-.388,9.372,1.724,2.928,7.569,6.994,10.328,9.378,7.35,6.356,16.66,11.594,25.283,16.044,15.794,8.151,32.724,14.25,48.989,21.681,7.191,3.288,14.989,7.171,13.375,16.578A23.075,23.075,0,0,1,636.075,701c-6.681,3.295-16.238,5.839-23.589,6.872-4.361.614-5.361-1.2-8.917-1.829-3.957-.7-8.575.652-12.658.617-18.326-.16-34.371-4.771-49.181-15.4-5.292-3.8-13.082-14.1-20.008-14.1-3.54,0-2.793,2.151-5.907,3.413-3.843,1.556-10.465-1.382-14.243-2.072-8.049-1.469-16.234-2.961-21.594-9.894-5.8-7.492-3.735-16.773-1.245-25.093,2.807-9.379,7.53-18.894,9.537-28.415.489-2.316.939-6.633.443-8.989-.772-3.656-4.463-5.837-4.574-9.8-.034-1.2,1.689-2.792,1.991-4.035.665-2.73.562-5.562.836-8.34.489-4.956,1.619-9.7,2.4-14.6,1.772-11.145,5.267-21.087,8.65-31.825,3.282-10.422,6.406-18.178,12.752-27.2,3.285-4.673,14.275-21.324,8.908-26.116-7.345,14.428-15.934,25.68-27.175,37.166-8.6,8.786-17,20.6-27.765,26.853-11.831,6.88-26.289,10.927-39.354,14.565-6.214,1.729-11.37,5.565-18.069,6.275a66.883,66.883,0,0,1-21.76-1.757c-2-.455-7.774-3.531-9.585-3.335-2.668.29-6.506,5.046-9.434,5.919-7.127,2.126-11.994-1.935-17.4-5.688-5.867-4.074-7.642-5.086-14.412-5.577-8.292-.6-16.356-3.522-24.512-5.312-14.34-3.146-26.529-9.522-39.563-16.2-14.941-7.649-27.721-18.2-38.983-30.66-16.555-18.321-39.611-69.088-12.567-86.863-15.921-2.162-30.5-9.115-32.443-27.134-1.014-9.429.9-19.874,3.266-28.963,1.082-4.15,2.372-8.274,3.608-12.381A8.49,8.49,0,0,0,195,346.557q.856-3.2-2.471-3.192c-4.193-4.9-7.346-9.231-8.193-16.193-.267-2.206-.506-5.588,1.064-7.464a5.363,5.363,0,0,1,2.626-1.511q3.687.212,2.084-3.631c1.193-3.628-.577-6.455,3.92-7.969q2.162.459,4.3,1.005,2.736,1.248,3.562-1.8c4.236-1.658,2.282-4.109,8.038-1.976a24.939,24.939,0,0,1,9.334,6.222c3.182-2.043-4.055-14.668-4.3-18.7-.573-9.495,3.353-17.345,8.46-25.144,9.927-15.156,23.783-28.188,37.447-39.914,26.172-22.456,53.667-43.834,83.219-61.725-12.191-8.467-26.434-10.762-40.94-6.827-13.373,3.628-24.213,10.216-36.523,15.98-11.4,5.337-23.509,7.53-27.145-7.035-4.074-16.315,8.924-22.372,20.583-29.688-2.911-2.171-12.495-.619-16.12-.362-8.074.571-15.8,2.394-23.642,4.006-3.763.772-7.22.6-10.948,1.355-5.542,1.125-11.329,2.385-16.936,3.988a134.4,134.4,0,0,0-38.108,17.407c-9.963,6.74-16.875,16.257-24.9,25.022-9.154,9.994-17.926,19.828-31.5,23.486-6.355,1.714-13.809,3.269-18.315-2.407-4.192-5.278-4.425-11.639-4.288-18.092.3-14.255,7.189-29.658,15.2-41.306,8.7-12.644,20.341-19.885,31.344-30.062-15.9,1.137-31.274,9.52-45.9,15.315-3.078,1.22-6.185,2.591-9.28,3.719-3.3,1.2-5.487.467-8.648,1.018-7.216,1.259-13.413,4.3-20.432-.548-13.279-9.171.025-27.828,9.167-33.553A253.577,253.577,0,0,1,86.488,85.61c-7.6-8.238-1.108-19.994,5.892-25.838,8.857-7.4,20.136-11.633,30.808-15.591,8.441-3.131,16.731-6.137,25.5-8.021,9.218-1.98,20-5.006,29.349-4.715,8.772.272,16.55-1.273,25.434-1.52,7.392-.206,14.8-.028,22.192-.219,19.886-.514,39.845.828,59.28,2.258C269.545-13.067,370.972.839,392.611,6.72c19.665,5.346,42.2,11.547,58.715,24.23A198.273,198.273,0,0,1,471.179,48.7c9.16,9.247,14.231,21.358,19.076,33.311,12.29-6.021,24.04-12.581,37.487-15.566,12.795-2.839,25.9-6.688,38.772-8.833,9.785-1.632,23.988-2.738,32.223,4.171,8.944,7.5,13.6,19.183,18.943,29.185,25.64-24.329,54.239-42.078,90.8-40.9,35.772,1.155,59.295,32.046,63.632,65.521,4.777,36.886-11.654,75.428-33.926,103.992-9.987,12.81-20.321,25.182-33.763,34.739-6.666,4.737-13.7,9.927-21.007,13.626a112.323,112.323,0,0,1-11.456,4.929,47.7,47.7,0,0,1-5.3,1.718c-5.128,1.244-4.132-.417-6.039,4.072-1.547,3.645-1.357,9.916-2.02,13.916-.757,4.572-1.207,9.207-2.312,13.717-1.916,7.817-3.91,15.442-6.309,23.076a219.8,219.8,0,0,1-18.14,42.186c6.349,2.758,15.24,3.036,22.025,3.872a153.106,153.106,0,0,1,22.325,4.936c15.284,4.273,28.942,7.881,43.476,14.279,15.089,6.642,28.537,16.56,43.066,24.454,13.36,7.259,26.865,16.351,39.273,25.065a38.267,38.267,0,0,1,7.13,6.5,38.62,38.62,0,0,0,6.042,5.531c1.3,1.047,5.063,6.332,6.542,6.526,2.649.351,2.242-1.626,4.321-4.386,4.342-5.762,10.4-10.226,14.709-16.134a174.605,174.605,0,0,1,11.19-14.152,169.472,169.472,0,0,0,23.622-33.906c3.442-6.4,7.066-12.488,10.8-18.527,3.721-6.012,10.336-13.947,17.747-13.592-.6-3.061-2.489-3.571.778-5.443,2.1-1.206,6.2.738,7.822,1.962,4.292,3.244,4.482,9.536,4.212,14.263a151.054,151.054,0,0,1-6.8,35.723c-4.27,13.846-9.622,26.061-15.463,39.276-4.65,10.527-10.424,24.448-21.995,29.252,7.771,11.1,4.039,20.137-1.155,31.917-3.8,8.612-8.81,17.51-16.447,23.209-8.608,6.424-17.945.974-26.948-3.271-5.438-2.566-22.067-8.619-18.685-16.512-4.154-.554-6.767-3.572-10.548-4.5-4-.983-3.315.642-7.55,1.252-3.248.467-8.1-2.441-11.162-3.482-5.108-1.737-10.2-3.519-15.3-5.275-14.355-4.945-28.468-9.813-42.965-13.774-26.973-7.37-54.279-11.551-81.157-18.132-5.388-1.319-10.745-2.592-16.355-3.649-1.158-.218-7.169-.553-7.9-1.793-1.279-2.173,2.653-14.333,2.99-16.811a158.209,158.209,0,0,0-1.629-50.159c-1.3-6.686-7.085-15.343-7.035-21.869.035-4.378,3.914-9.158,6.192-13.124,5.634-9.8,11.537-20.4,15.711-30.6,6.389-15.61,10.3-33.23,13.126-49.948,1.469-8.716,3.18-18.164,3.58-26.981.306-6.721-.246-13.77.73-20.653-3.72.353-8.983,2.28-12.333.217-4.231-2.6-5.367-10.036-4.827-14.475-14.486,2.529-14-11.209-13.108-21.952-26.181,0,7.348-38.9,11.537-47.258,1.925-3.841,1.868.473,1.018-5.467-.373-2.611-2.158-5.505-3.168-7.906q-3.3-7.861-7.12-15.487A294.831,294.831,0,0,0,604.069,89.45a105.964,105.964,0,0,0-16.348,14.378c3.2-8.37,12.979-18.739,8.8-28.243-3.876-8.81-16.823-8.2-24.469-6.588-20.777,4.381-40.7,10.761-60.5,18.147,6.131,3.516,15.518.8,21.61-1.888,7.543-3.33,15.655-6.823,23.785-8.586,7.09-1.538,16.4-1.014,14.353,8.536-1.661,7.738-9.229,15.19-14.223,20.976-11,12.747-24.8,22.615-38.352,32.475-14.568,10.6-28.6,22.115-43.357,32.407-26.667,18.606-55.34,34.776-82.892,52.143-14.317,9.024-30.54,16.286-46.067,22.974-17.08,7.357-33.456,15.234-51.176,21.045-9.841,3.228-19.6,5.884-29.265,9.557-6.061,2.3-16.616,6.912-20.621.079-8.133-13.878,21.3-32.129,29.366-40.614,5.564,5.4-21.875,25.541-19.727,33.409,1.687,6.183,8.214-1.8,11.366-3.486,5.093-2.724,11.125-4.093,16.244-7.2,10.5-6.374,22.947-13.725,25.344-26.9q-2.5-2.64.063-4.875a11.248,11.248,0,0,0,1.81-2.983,44.915,44.915,0,0,0,1.447-6.86c1.182-6.489-1.785-12.565.988-18.916-16.181,12.26-31.734,26.109-47.094,39.381-13.777,11.9-28.153,27.494-33.216,45.258-.648,2.276-1.726,4.858-1.608,7.26.23,4.716.7,3.7,4.5,5.215s9.333,1.386,13.419,1.547c2.329.09,12.731-2.376,10.663,2.735-1.192,2.947-8.4,2.836-10.985,3.108-6.48.684-9.994-.018-6.924,7.006,1.376,3.148,4.164,5.281,6.351,7.717,6.087,6.779,9.393,17.176,14.181,25.14a301.586,301.586,0,0,0,17.823,26.151c2.629,3.486,6.143,10.039,9.788,12.527,3.4,2.323-.6,2.131,5.052,1.187,2.464-.41,4.7-2.013,7.054-2.587,14.093-3.433,28.579-7.3,43.153-11.541,18.642-5.42,38.205-10.043,55.991-17.849,15.933-6.995,31.748-15.322,47.848-22.406,4.7-2.067,9.4-3.438,13.052-7.243,4.411-4.592,8.063-10.6,12.131-15.54,6.919-8.4,13.3-16.937,20.743-24.894,5.544-5.921,15.368-16.927,23.189-19.291,14.861-4.489,6.906,18.146,4.985,23.867,3.494.793,5.33-3.688,9.43-2.4,4.909,1.544,5.417,8.072,6.031,12.163.163,1.09-1.312,3.127-.864,4.1.153.331,3.356,2.225,3.974,3.1,2.243,3.189,1.8,7.067.952,10.506-4.4,17.815-20.029,30.823-31.526,43.964,5.143-.973,8.956-3.9,13.811-5.357,4.557-1.363,9.138-1.292,13.731-1.683,4.809-.409,9.428-2.209,14.348-2.3,5.163-.1,10.106,1.374,15.226,1.957" fill-rule="evenodd"/><path d="M23.737,189C20.9,190.853,20.1,192.671,20,196.946c-.039,1.753.082,8.294,2.532,8.047,2.3-.231,1.2-13.744,1.2-15.993M9.092,199.653c1.321-13.7,6.334-27.632,18.125-36.169,2.916-2.111,6.215-2.036,9.411-3.368,1.921-.8,4.955-4.52,7.136-4.08,8.027,1.624-1.247,12.29-2.6,15.1-4.209,8.693-3.924,16.331-3.8,25.709.1,7.127,1.577,19.142-2.016,25.593-3.83,6.869-12.137,2.408-16.775-1.657C12.721,215.648,8.3,207.475,9.1,199.657" fill-rule="evenodd"/><path d="M150.01,240.142c0,7.645,6.205,2.469,5.984-2.969-.325-8.006-6.274-3.076-5.984,2.969M183,197.876c-6.791,6.108-12.03,9.535-13.339,18.927-.991,7.114-.006,14.16.036,21.326.071,12.012-9.629,24.641-20.067,10.871-7.614-10.043-4.883-25.835,1.326-35.929a42.713,42.713,0,0,1,13.282-13.834c4.041-2.484,15.409-7.371,18.762-1.361" fill-rule="evenodd"/><path d="M88.151,383c-.788,1.863-2.636,9.469,1.135,7.749,3.33-1.52,1.173-6.562-1.135-7.749M68.224,359.517c-.582-2.86-.345-20.79,4.594-19.445,3.879,1.054,4.52,10.232,6.1,13.426,5.885,11.9,19.392,19.3,24.05,31.579,5.2,13.71-10.52,14.136-18.861,8.584-9.876-6.574-15.59-22.671-15.884-34.144" fill-rule="evenodd"/><path d="M56.117,286c2.143-2.894,2.36-4.44,1.138-7-1.562,1.7-1.285,4.127-1.138,7m1.551,12.945c-11.173,1.251-11.733-19.34-9.819-26.41a52.512,52.512,0,0,1,8.172-16.269c.681-.926,7.142-9.245,8.408-9.265,4.859-.077,3.524,5.414,3,7.458a56.572,56.572,0,0,0-1.861,18.962c.477,7.64,4.094,25.778-7.9,25.524" fill-rule="evenodd"/><path d="M565,120.618c-15.977,13.4-31.145,27.9-48.518,39.625-8.5,5.736-17.388,10.81-25.871,16.639a88.689,88.689,0,0,1-13.521,7.809c-4.234,1.928-7,2.179-3.489-2.4,2.348-3.057,7.611-5.187,10.81-7.36,4.922-3.347,9.571-7.059,14.749-10.028,9.128-5.237,18.2-9.465,26.615-15.887,7.469-5.7,15.174-11.263,22.3-17.32,3.057-2.6,13.192-14.521,16.923-11.081" fill-rule="evenodd"/><path d="M565.323,169c7.185,6.146-10.792,22.984-14.892,26.8a176.331,176.331,0,0,1-13.786,11.18c-1.655,1.256-10.685,9.659-12.977,8.981-4.522-1.339,1.415-6.791,2.959-8.212,4.993-4.6,10.093-9.072,14.975-13.8,4.4-4.26,9.171-8.205,13.429-12.6,3.449-3.563,6.347-9.6,10.292-12.346" fill-rule="evenodd"/><path d="M33,416.756c-1.876-4.347-5.236.479-3.533,2.65,1.611,2.055,3.293-1.815,3.533-2.65m-11-8.584c1.006-6.392,3.33-9.944,9.326-4.488,4.121,3.749,12.408,14.41,11.621,20.222-1.032,7.623-9.428,5.46-13.781,1.474C24.7,421.294,22.735,413.84,22,408.172" fill-rule="evenodd"/><path d="M35.14,533.975c-7.346-.559-13.613-6.2-16.732-12.808-2.625-5.558-5.109-14.517,4.112-11.6,6.01,1.9,29.177,25.3,12.62,24.4" fill-rule="evenodd"/><path d="M124.164,497.74c-5.677,1.293-11.292-2.446-14.783-6.662-2.172-2.626-7.227-11.831-4.68-15.62,3.55-5.285,8.91,5.338,10.759,7.441,2.9,3.293,12.384,9.591,8.7,14.841" fill-rule="evenodd"/><path d="M129.277,354c-4.45-2.065-8.581-4.551-10.371-9.483-1.138-3.141-2.094-12.56,2.96-12.517,5.846.052,19.232,21.057,7.411,22" fill-rule="evenodd"/><path d="M98.079,256c5.958-.108,7.369,3.178,8.2,7.9.563,3.2,3.292,14.081.458,16.309-4.05,3.184-10.493-4.111-11.795-6.975-2.684-5.9,1.027-11.7,3.14-17.233" fill-rule="evenodd"/><path d="M200.458,582.138c2.9,1.32,9.5,4.247,6.979,8.789-2.637,4.75-10.208.134-13.036-1.942-1.184-.869-8.706-6.557-8.391-8.464.663-4.054,11.032,1.236,14.448,1.617" fill-rule="evenodd"/><path d="M9.326,285.508c1.982,4.964,4.214,22.018-6.225,12.809C-.085,295.506-.565,292,.532,288.137c1.587-5.592,3.9-4.483,8.794-2.629" fill-rule="evenodd"/><path d="M562.538,222c-2.312-4.723,3.4-7.769,6.445-10.813,1.991-1.988,10.364-12.771,13.109-12.162,5.647,1.253-16.778,20.869-19.554,22.975" fill-rule="evenodd"/><path d="M98,564.086c5.447-.874,6.718,5.176,10.227,7.813,1.5,1.132,6.671,2.126,5.632,4.528-2.73,6.306-16.126-8.1-15.859-12.341" fill-rule="evenodd"/><path d="M144,421.192c3.744-1.567,14.55,6.851,11.447,10.488-4.638,5.441-11.183-7.511-11.447-10.488" fill-rule="evenodd"/><path d="M222.917,542.986c-2.729.271-14.246-3.349-9.979-8.2,3-3.4,10.958,5.114,9.979,8.2" fill-rule="evenodd"/><path d="M85,519.728c-2.71,1.083-12.481-1.145-9.409-5.389C78.518,510.3,85,516.374,85,519.728" fill-rule="evenodd"/><path d="M165,538.037c3.168-.329,5.456,1.581,6,4.815-3.962.565-5.184-.377-6-4.815" fill-rule="evenodd"/><path d="M577,68.491l4,.019-4-.019" fill-rule="evenodd"/><path d="M556,347h-6q3-.006,6-.008" fill-rule="evenodd"/><path d="M283.139,21q-.138,3-.278,6,.135-3.006.278-6" fill-rule="evenodd"/><path d="M902.806,361q.957,3.338-2.806,1.106L902.806,361" fill-rule="evenodd"/><path d="M846,535.49l3,.02-3-.02" fill-rule="evenodd"/><path d="M656,374.525c-1.677,1.278-3.345,1.458-5-.068q2.5.036,5,.068" fill-rule="evenodd"/><path d="M618.565,204q-.063,2.5-.13,5,.063-2.507.13-5" fill-rule="evenodd"/><path d="M705,49.7l-5-.005a8.148,8.148,0,0,1,5,.005" fill-rule="evenodd"/><path d="M216,29.353l-5,.294,5-.294" fill-rule="evenodd"/><path d="M257,29.67l-4-.34,4,.34" fill-rule="evenodd"/><path d="M279,31.255a4.4,4.4,0,0,1-4,.007l4-.007" fill-rule="evenodd"/><path d="M160,33.993q-2.5.509-5,1.014,2.5-.5,5-1.014" fill-rule="evenodd"/><path d="M619.568,441q-.069,1.5-.136,3,.07-1.5.136-3" fill-rule="evenodd"/><path d="M68.471,360c.02.668.039,1.336.057,2-.021-.67-.038-1.335-.057-2" fill-rule="evenodd"/><path d="M909,356.412l-5,.026a4.055,4.055,0,0,1,5-.026" fill-rule="evenodd"/><path d="M567,349.33l-4-.66,4,.66" fill-rule="evenodd"/><path d="M201,581.987c-1.667-.323-3.333-.651-5-.974Z" fill-rule="evenodd"/><path d="M537.546,295q-.047-1.5-.092-3,.045,1.5.092,3" fill-rule="evenodd"/><path d="M221,29.684l-3-.369,3,.369" fill-rule="evenodd"/><path d="M385,4.955l-3-.909,3,.909" fill-rule="evenodd"/><path d="M504,679.439l2,.122-2-.122" fill-rule="evenodd"/><path d="M45,142.46l3,.08-3-.08" fill-rule="evenodd"/><path d="M716,50.676l-5-.352,5,.352" fill-rule="evenodd"/><path d="M189,45.994l-7,.012,7-.012" fill-rule="evenodd"/><path d="M661.452,252q.045,2.5.1,5-.045-2.5-.1-5" fill-rule="evenodd"/><path d="M539,610.032q-2.007-.03-4-.064c1.341.018,2.67.042,4,.064" fill-rule="evenodd"/><path d="M681,80.194l6-.666c-1.92,1.7-3.993.568-6,.666" fill-rule="evenodd"/><path d="M528,610.555l-3-.11,3,.11" fill-rule="evenodd"/><path d="M493.424,628q.075,2.5.152,5c-.049-1.673-.1-3.336-.152-5" fill-rule="evenodd"/><path d="M646,141.6l4-.371c-1.217.938-2.646.389-4,.371" fill-rule="evenodd"/><path d="M209,407.633q2,.369,4,.734l-4-.734" fill-rule="evenodd"/><path d="M417,144.5c1.664-1.418,3.331-1.264,5-.016q-2.5.006-5,.016" fill-rule="evenodd"/><path d="M354.427,195c.048-.667.1-1.334.146-2-.046.668-.1,1.334-.146,2" fill-rule="evenodd"/><path d="M645.479,176q.021,2,.042,4c-.013-1.339-.027-2.669-.042-4" fill-rule="evenodd"/><path d="M204.284,385.031c2.194.744,6.607,2.991,9.164,2.693,2.047-.239,3.734-2.727,5.708-2.724,5.315.007,4.329,6.151,1.761,9.449-6.945,8.922-22.464-.752-16.633-9.418" fill-rule="evenodd"/><path d="M225.977,353c7.248,1.871,3.638,17.814-2.455,18.91-7.174,1.292-8.424-11.672-7.007-16.358,3.692,2.194,1.406,10.02,6.059,7.857,2.959-1.377,2.509-7.743,3.4-10.409" fill-rule="evenodd"/></g></g></svg>