<svg xmlns="http://www.w3.org/2000/svg" width="844.657" height="603.385" viewBox="0 0 844.657 603.385"><g transform="translate(0.383 0)"><path d="M571.005,335.473c9.1,6.6,7.652,19.578,4.912,29.009-4.034,13.887-12.069,26.742-21.235,37.823-16.261,19.658-43.866,41.731-69.312,24.473-22.66-15.37-36.954-46.383-41.888-72.506-1.525-8.073-3.556-20.1,3.609-26.171,10.592-8.971,29.277-7.339,42.063-6.184,8.422.76,16.547,3.341,24.869,2.13,19.335-2.818,40.854-.266,56.982,11.426" transform="translate(-85.723 -82)" fill="#f6550f" fill-rule="evenodd"/><path d="M112.7,356.343c18.435,23.385,49.777,27.08,77.613,26.851,16.716-.139,33.463-1.4,49.851-4.8A217.863,217.863,0,0,0,266.31,371.2c5.639-1.931,14.033-2.9,16.432-8.938,6.33-15.94,1.672-35.931-.934-52.111-1.326-8.23-2.321-16.509-3.61-24.745-.825-5.27-1.22-11.1-3.429-16.03-2.586-5.775-5.852-4.622-11.321-3.027-7.535,2.2-15.271,3.114-23.018,4.3-18.907,2.887-35.4,8.709-52.584,16.961-16.991,8.158-33.471,16.212-48.626,27.556a121.089,121.089,0,0,0-20.458,19.317c-4.762,5.66-11.869,14.5-6.062,21.865m80.584,103.869c.148,2.518,29.041-5.084,32.842-5.937,24.947-5.6,50.389-11.968,73.94-22.078,21.983-9.436,41.352-20.232,58.651-37a252.185,252.185,0,0,0,22.255-24.808c3.479-4.393,8.231-3.883,12.109-7.6,3.489-3.345,6.165-5.957,5.075-10.957-8.719,2.3-24.817,16.737-33.854,9.445-5.152-4.156,1.993-8.5,5.291-10.906a95.28,95.28,0,0,0,16.431-15.98,72.922,72.922,0,0,0-23.7,9.222c-3.272,1.96-14.487,9.067-17.1,2.292-1.607-4.171,6-9.412,8.369-11.72,5.822-5.665,12.108-12.279,15.2-19.9-7.643-1.773-14.847,4.134-20.052,8.945-5.777,5.342-12.859,10.948-17.7,17.1-2.5,3.174-3.043,6.924-4.995,10.348-2.2,3.852-5.711,7.154-9.069,10-6.471,5.493-14.039,9.537-21.807,12.882-17.751,7.642-36.778,13.051-55.7,16.845a167.751,167.751,0,0,1-27.758,3.035c-7.322.246-10.563,2.436-13.358,9.182-7.566,18.256-6.192,38.338-5.063,57.575M410.573,321.1c4.233,3.961,9.734,6.446,14.159,10.254A108.641,108.641,0,0,0,437.462,341c4.639,2.892,8.106.864,12.283-1.753,4.9-3.07,10.541-4.315,15.592-7.062,17.463-9.505,38.828-32.794,35.568-54.178-1.382-9.063-6.068-17.981-14.577-22.093-7.727-3.734-18.961-5.807-27.228-2.685-4.663,1.761-8,5.648-10.988,9.47-3.484,4.455-4.819,3.753-8.367-.544-6.349-7.687-16.819-14.431-27.17-14.269a37.052,37.052,0,0,0-14.888,3.3c-.628.29-.978,1.166-1.608,1.463-.774.365-2.046-.394-2.584-.053-1.357.859-2.711,3.542-3.493,4.9-3.141,5.463-8.8,16.177-3.1,20.777,0,0-.254,6.224-.175,6.933a29.89,29.89,0,0,0,3.338,10.171c4.964,10.2,12.293,18.048,20.5,25.728m-8.441,86.28c4.01,1.246,8.33-11.322,4.483-13.328-3.668-1.913-8.114,12.2-4.483,13.328m62.988-15.027c1.389,4.747,1.975,10.135,5.372,14,3.11-3.69,3.416-10.5.4-14.293-1.721-2.164-7.291-4.894-5.772.294m-128.33-83.175c.023.12-4.825,2.439-2.46,4.974,3.232,3.463,2.787-3.277,2.46-4.974m-20.035-38.692c.056,4.8,10.218,3.641,10.146-1.187-.089-5.942-10.2-3.9-10.146,1.187m12.131-40.119c-1.006-4.4-18.682-10.509-18.2-2.849.242,3.84,20.334,12.193,18.2,2.849m181.2,149.044c1.982,2.382,4.8,3.321,7.171,5.15,2.491,1.916,4.271,4.4,6.446,6.652,5.974,6.176,13.165,11.251,19.609,16.925,11.849,10.429,23.2,21.642,36.335,30.487,23.475,15.8,50.7,24.45,77.722,32.019,2.239.627,8.688,3.158,10.9,1.273,2.389-2.033,1.174-9.187,1.064-11.892-.448-11.091-1.741-22.313-1.6-33.387.058-4.549,1.39-11.015-.984-15.177-2.65-4.648-10.048-6.008-14.625-7.757-13.91-5.317-27.31-14.286-39.6-22.592-15.1-10.212-30.361-20.593-45.905-30.125-15.23-9.339-32.028-15.593-49.016-20.927-.787,1.654,7.319,6.976,8.245,7.722,4.445,3.578,9.28,7.287,12.579,12.01,2.336,3.344,4.731,10.91-1.718,11.1-3.127.094-7.749-2.93-10.583-3.908a81.157,81.157,0,0,0-14.4-3.488c4.211,4.636,18.483,12.964,15.886,20.674-2.519,7.482-17.092-1.249-22.109-1.249.823,2.609,2.89,4.45,4.584,6.486M682.247,400.3c9.332,3.282,18.9,5.148,28.531,7.267,9.18,2.02,17.667,3.542,27.07,2.359,12.984-1.632,27.352-7.01,29-21.763,1.952-17.48-10.393-33.543-20.994-46.084a294.61,294.61,0,0,0-43.087-41.25,318.082,318.082,0,0,0-50.342-32.4c-13.491-6.987-28.727-11.229-42.992-16.473-2.714-1-10.22-4.5-12.759-1.6-2.051,2.349.741,6.262,1.676,8.443,1.824,4.252,2.075,8.533,2.546,13.1,2.1,20.388,4.634,40.77,5.8,61.246.325,5.706.9,11.676.563,17.386-.183,3.163-1.829,7.191-.733,10.279,2.107,5.936,11.756,9.865,16.869,12.517,9.155,4.747,18.849,8.289,28.1,12.829,10.158,4.987,20.047,10.377,30.758,14.145M552.815,267.825c-2.562-.352-6.4-1.05-8.683.61-2.978,2.164-2.2,5.176.553,6.745,2.173,1.241,7.257,1.58,9.4.454a4.1,4.1,0,0,0-1.273-7.809m-14.188,47.21c2.071,3.448,9.636,5.709,8.977-.725-.565-5.509-12.789-5.624-8.977.725m2.809-97.129c-3.328,1.289-9.367,2.392-10.354,6.673-.919,3.984,2.857,3.721,5.581,2.624,2.241-.9,12.225-9.366,4.773-9.3M20.041,369.895c1.944-7.564.464-15.937,1.536-23.684a96.9,96.9,0,0,1,5.6-21.488c5.949-15.668,12.764-29.772,22.407-43.523,18.162-25.9,39.232-48.7,64.676-67.618a321.611,321.611,0,0,1,82.4-44.482c31.245-11.279,62.7-15.2,95.645-17.366,9.839-.645,19.67-1.41,29.454-2.653,7.15-.908,16.114-2.027,23.184.163,4.442,1.377,6.924,5.25,2.085,7.792-3.431,1.8-7.922,2.018-11.711,2.5,4.577,14.54,12.024,29.131,23.826,39.143,11.521,9.775,26.939,13.126,41.48,15.6,7.886,1.343,16.715,2.383,24.722,1.8,5.063-.365,9.013-2.709,11.056,2.505,1.417,3.623,2.088,7.6,3.957,2.128,2.21-6.467,3.294-6.426,10.17-8.263,14.061-3.756,30.18-7.183,42.447-15.307,12.727-8.428,17.153-22.062,24.258-34.758,1.757-3.138,7.057-9.489,4.349-13.085-2.477-3.288-10.531-2.96-14.219-3.3-3.892-.362-7.807-.377-11.712-.529-2.262-.087-6.813.84-5.9-2.539,1.374-5.093,16.085-4.44,19.739-4.523a155.18,155.18,0,0,1,20.441.752,623.3,623.3,0,0,1,99.771,19.7c62.928,17.732,123.874,50.406,169.8,97.478,44.083,45.185,58.049,120.376,30.948,178.069-14.083,29.984-44.648,42.3-74.276,52.249-15.627,5.246-32.176,9.351-48.788,8.361-7.972-.476-15.537-2.623-23.312-4.239-3.39-.706-7.249-1.831-10.732-1.547-2.637.215-5.169,2.635-7.642,1.349-1.756-.913-2.519-3.533-4.664-4.649-2.575-1.339-5.7-1.823-8.479-2.5-7.731-1.878-15.218-4.924-22.775-7.421a238.362,238.362,0,0,1-22.687-9.271c-3.786-1.7-12.548-8.6-15.015-3.555-1.125,2.3-.646,6.747-.92,9.163-.48,4.226-1.044,8.443-1.66,12.651-1.358,9.264-2.984,18.49-4.65,27.7-3.008,16.625-6.883,32.541-13.363,48.181-5.174,12.487-9.717,26.641-19.324,36.575a16.618,16.618,0,0,1-15.932,4.925c-6.843-1.551-10.249-7.766-14.4-12.791-9.14-11.059-24.228-19.532-38.161-22.583-17.062-3.735-33.681,1.728-49.967,6.372-17.226,4.912-34.763,9.592-51.671,15.5-15.756,5.5-32.769,13.63-49.857,12.923-14.9-.616-28.82-12.744-39.566-21.989-10.794-9.284-24.289-22.879-39.809-21.784-7.707.542-14.729,4.26-22.236,5.771-8.241,1.66-17.009,1.9-25.389,2.514-10.4.767-33.675-1.945-37.523-14.459-.571-1.857-.575-5.68,1.877-6.423,2.255-.682,3.407,1.954,5.544,1.834,4.347-.245,7.743-7.824,10.131-10.759,9.637-11.845,22.857-20.68,33.671-31.381,12.211-12.082,22.636-26.721,31.837-41.159-4.16-1.081-8.648.715-12.673,1.568-4.892,1.036-9.659,2.288-14.48,3.615-5.312,1.463-10.7,2.469-16.093,3.584-4.023.83-9.363,1.081-12.995,3.1-3.17,1.762-4.939,3.654-8.875,4.165-4,.52-8.11.082-12.131.055-10.874-.074-21.726-.276-32.55-1.425-38.243-4.063-78.782-20.239-101.779-52.343a100.825,100.825,0,0,1-14.478-28.67c-2.485-8.015-6.77-19.309-4.608-27.724" transform="translate(-19.45)" stroke="#fff" stroke-width="1" fill-rule="evenodd"/><path d="M445.011.008c-10.05.142-19.471,3.123-28.835,6.511C407.94,9.5,399.161,12.254,392.5,18.2c-11.978,10.7-15.1,28.407-17.058,43.56-2.445,18.908,5.691,34.772,12.539,51.878,6.4,16,18.159,28.96,32.131,38.836,7.32,5.173,15.41,8.3,23.875,11.034,8.6,2.781,16.925,6.506,26.124,6.492,13.969-.02,31.854-6.655,37.8-20.418,2.709-6.267.071-7.392-5.351-3.986-7.865,4.941-15.446,10.273-24.637,12.465-17.824,4.252-39.172-2.335-54.8-11.027s-26.112-21.743-33.122-38c-7.072-16.4-9.82-32.556-7.093-50.233,2.311-14.981,6.909-28.665,20.409-36.8,29.143-17.553,68.408-16.139,94.324,6.673,3.555,3.127,7.068,6.17,10.73,9.156,2.329,1.9,5.071,4.175,4.732,7.458-.289,2.811-6.282,13.648.935,10.319,5.85-2.7,9.029-7.976,16.116-8.629,7.543-.7,16.54,5.1,18.8,12.392,2.152,6.959-1.686,16.479-7.7,20.471-3.723,2.472-7.819,2.09-12.046,1.99-2.1-.05-7.939-.731-9.327,1.486-2.457,3.923,6.21,8.046,9.007,8.914,6.806,2.111,14.85-.373,18.762-6.449a44.832,44.832,0,0,0,7.25-20.675,30.227,30.227,0,0,0-5.236-19.976c-4.424-6.156-13.441-13.058-21.525-10.919-3.509.928-6.328,4.553-9.771,5.242-2.174.434-1.259.744-3.06-.867a49.435,49.435,0,0,1-3.278-4.119c-6.067-6.966-12.067-14.4-19.492-19.975C479.227,4.5,461.53-.226,445.011.008Zm36.82,138.1c-1.575-3.692-4.468,2.893-5.323,3.994-1.693,2.179-5.675,3.873-5.5,7.086.284,5.3,7.513,4.32,9.924,1.553,2.74-3.141,2.453-8.983.9-12.628ZM430.47,113c-3.9,6.078.853,12.638,3.936,18.018,2.949,5.143,5.687,10.957,9.119,15.793,5.7,8.028,18.094-.657,18.462-8.908.282-6.316-4.192-3.567-7.064-1.208-2.956,2.43-4.356,3.035-7.455.381-6.233-5.341-9.034-14.271-13.343-21.033C433.27,114.7,431.722,113.9,430.47,113Zm-11.118,1.954c-1.006,2.94,1.1,10.728-4.761,9.949-3.241-.43-3.933-5.08-5.637-7.11-5.729-6.823-3.972,6.082-2.475,9.312,3.3,7.118,12.536,12.023,17.117,2.992,1.7-3.359,1.7-7.6.83-11.21C423.955,116.92,421.208,109.526,419.352,114.954Zm52.3-13.92c.519,3.429,3.743,10.262-.193,12.715-3.463,2.16-9.494-2.53-12.161-4.488-2.77-2.035-9.05-7.872-9.3-.608-.126,3.7,3.581,8.146,6.226,10.279,5.643,4.549,17.368,8.63,21.527.067,2.265-4.665,1.026-11.305-.472-16.006-1.209-3.809-6.879-10.243-5.626-1.959ZM397.64,82.258c-2.3,2.667-7.739,8.642-4.78,12.439,3.46,4.439,9.082-3.706,11.3-5.972,2-2.042,6.2-7.857,4.407-10.941C405.6,72.679,399.657,79.916,397.64,82.258Zm36.1-11.483c-7.506,4.89,2.363,8.411,6.638,8.849,5.175.528,11.791.878,16.544-1.661,6.737-3.6,4.491-9.036-2.039-10.338C448.183,66.292,439.565,66.979,433.74,70.775Zm97.58-15.567c-5.52,1.074-11.825,2.472-13.705,8.49-1.942,6.22.848,8.284,6.486,6.883,5.217-1.3,13.009-2.6,15.958-7.7C543.583,56.8,536.438,54.213,531.32,55.208Z" transform="translate(-85.723)" fill-rule="evenodd"/><path d="M721.054,188.85c1.852,5.983,11.228,9.95,15.9,13.587,16.354,12.723,32.335,25.97,47.121,40.49,7.674,7.537,13.483,16.654,20.137,25.036,1.624,2.045,4.5,6.628,7.685,6.2,3.494-.47,4.2-6.488,4.089-9.116-.382-8.962-8.567-17.617-14.4-23.788-6.566-6.939-13.586-13.7-20.755-20.019a238.129,238.129,0,0,0-25.188-18.788c-8.571-5.748-16.789-12.389-25.7-17.6C725.741,182.4,718.769,181.469,721.054,188.85ZM149.378,132.036c-6.827.215-13.488,2.454-19.926,4.533C115.29,141.142,101.8,147.486,88.5,154.117A397.317,397.317,0,0,0,22.177,195.79a119.419,119.419,0,0,1-13.383,8.781c-2.992,1.751-7.259,3.886-8.412,7.454-2.928,9.068,11.853-.034,13.95-1.336l2.951-1.829c43.764-27.124,87.477-53.477,136.979-69.032,2.637-.829,3.457-3.181,2.074-5.512C154.836,131.789,151.914,131.956,149.378,132.036Zm573.667,18.979c.316,2.761,3.444,3.389,5.553,4.275,7.87,3.306,15.937,6.125,23.785,9.486,14.568,6.237,27.945,15.288,43.151,20.022,3.475,1.083,3.987-2.424,3.057-4.81-1.036-2.663-4.148-4.533-6.4-6.074-6.493-4.448-13.856-7.645-21.066-10.735-7.148-3.065-14.508-5.384-21.837-7.953-6.811-2.389-14.717-6.834-22.032-7.163l-.32-.015c-2.326-.118-4.259-.275-3.89,2.967ZM136.953,109.07c6.959-1.958.384-6.364-3.752-6.054-4.614.345-9.074,2.524-13.45,3.838-13.378,4.017-25.779,8.41-38.278,14.645-1.864.931-10.075,5.344-4.643,7.3,3.764,1.354,12.556-4.455,15.788-5.848C106.821,116.824,122.083,113.251,136.953,109.07Z" transform="translate(28.277)" fill-rule="evenodd"/><path d="M393.392,123.331c-.87-2.552-11.63-30.454-7.418-31.3,4.461-.892,10.424,15.3,11.717,18.222,4.78,10.8,7.61,22.392,9.827,33.979,1.545,8.068,2.9,16.333,2.361,24.581-.416,6.339-3.034,7.3-7.349,11.183a175.575,175.575,0,0,0-9.138-56.669" transform="translate(49.278)" fill-rule="evenodd"/></g></svg>