<svg xmlns="http://www.w3.org/2000/svg" width="692.517" height="700.266" viewBox="0 0 692.517 700.266"><path d="M290.586,420c-1.424,9.569-5,17.98-8.025,26.938a75.737,75.737,0,0,1-5.842,12.442c-1.415,2.52-3.209,8.507-5.806,5.009-.431,1.826.136,2.721-.464,4.408-.845,2.382-5.229,5.347-7.136,7.182-1.837,1.769-3.858,3.125-5.836,4.688-.391.308-1.2.056-1.52.414-.59.671-.039,1.6-.288,1.914-3.1,3.894-8.477,6.66-12.507,9.522-5.76,4.09-11.492,8.178-17.1,12.464-4.437,3.388-8.668,6.96-13.069,10.351a25.855,25.855,0,0,0-5.269,5.354c-1.945,2.63-2.238,2.747-.886,5.463,2.419,4.854,6.78,7.986,9.693,12.344,3.32,4.968,5.455,10.523,9.966,14.668,2.017-4.548,4.623,2.1,1.274,1.4,1.556,4.614,5.033,8.543,7.353,12.883a166.367,166.367,0,0,0,8.989,14.613q.5-1.793.993-3.585c3.158.755.629,3.071.4,4.03-.2.814-.883.9-.394,2.667.368,1.329,1.643,2.459,2.452,3.562,1.819,2.482,3.512,5.036,5.229,7.588,1.691,2.511,2.281,4.583,3.371,7.036.972,2.191,1.867,1.775,3.433,3.388,1.62,1.666,3.231,4.57,4.674,6.488a100.78,100.78,0,0,1,11.083,18.747c2.794,6.194,7.953,10.547,10.311,17.116,1.206,3.354,1.647,6.88,2.692,10.269.978,3.164,2.578,6.107,3.183,9.391.5,2.727.179,5.885.423,8.276.2,1.952,1.017,4.95.775,7.7-.513,5.8-2.919,10.835-5.792,15.668,13.1,4.441,28.015,5.689,41.764,5.367,7.027-.166,15.035-.232,21.911,1.394,3.976.94,7.03,2.11,11.207,1.783s8.341-.719,12.512-1.079c-1.217-2.453-5.194-5.544-7.426-7.426-1.288-1.088-3.413-1.345-4.4-2.394-1.129-1.2-1.474-4.2-1.876-5.645a334.118,334.118,0,0,1-7.314-33.65c-3.423-20.06-4.75-40.484-6.014-60.669-.091-1.452-.8-3.207-.764-4.586.057-2.228.5-3.48.332-5.6-.107-1.343-1.711-3.138-1.641-4.324.061-1.043,1.847-.25,1.844-1.815-.005-2.252-3.222-5.494-3.894-7.514-.26-.783.7-1.832.792-2.709l.005-.157c-.041.024-.749-3.162-.778-3.292-.235-1.019-1.155-1.34-1.108-2.618.04-1.1,1.656-2.543.783-3.687-.6-.782-2.769.473-3.259-.417-.631-1.145,2.142-5.057,1.835-6.83-.5-2.886-2.561-5.813-3.263-8.779-.312-1.321.034-3.387-.992-4.48-1.673-1.782-3.129.043-5.544-.553,2.463-2.09,2.94-3.921,2.213-6.973-.569-2.382-1.7-5.027-4.307-2.648.389-3.556.375-4.111-2.28-6.8-1.288-1.307-2.676-3.5-4.215-4.385l-1.4-1.469a3.515,3.515,0,0,1-2.251,1.116c-7.445-.4-11.164-1.92-18,2.544-2.884,1.884-5.759,3.293-8.238,5.745-2.765,2.735-5,5.954-7.957,8.509-3.311,2.858-6.579,5.2-9.533,8.482-2.442,2.71-4.792,5.778-8.064,7.434-.25-3.92,1.893-7.425,3.766-10.848a6.465,6.465,0,0,1,1.82-1.39c.2-.687-.553-1.279-.32-1.888-2.837,2.565-5.769,6.372-9.018,8.293-5.3,3.135-2.946-2.983-1.934-6.127a76.175,76.175,0,0,1,14.15-24.8c10.57-12.661,28.2-26.8,45.076-18.828,16.724,7.9,25.534,21.165,30.333,38.811a251.6,251.6,0,0,1,8.654,61.271c.3,12.147,1.543,24.194,2.82,36.273,1.247,11.786,1.757,24.556,4.135,36.129a20.771,20.771,0,0,0,3.118-6.253c.3-.988-.077-1.955.439-2.926.238-.447,1.446-.392,1.672-.8,1.852-3.343,4.455-7.942,5.307-11.789.449-2.027.039-3.21.906-5.054.815-1.729,1.226-.09,1.536-2.224.043-.295-1.323-.782-.9-2.165,1.064-3.491,1.814-.182,2.324-.2,1.052-.044-1.324-7.2-1.137-8.33.216-1.292.819-.588,1.113-1.53a26.653,26.653,0,0,0,.787-3.265c.6-3.6,1.969-4.78,2.031-8.679.074-4.706,1.818-7.736,2.6-12.232.145-.828-.76-1.758-.6-2.482.339-1.508,1.431-2.76,1.856-4.353.888-3.332-.884-6.206-.637-9.416-.041.526,1-2.362,1.061-2.617.374-1.468.214-3.434.509-5.032.279-1.5,1.2-3.5.375-4.9-.565-.959-1.835-.7-2.575-1.767,2.717-.875,2.147.08,3.128-2.917.937-2.862,1.028-5.26-2.076-3.368.784-1.931,2.244-4.3,2.562-6.368.291-1.889-.4-3.718-.2-5.6.532-5.036,2.084-8.1-.779-12.986,3.772-1.929,2.14-8.646,2.724-12.3.633-3.966,2.178-7.757-.8-10.362,3.774-2.711,1.855-11.5,1.785-15.7-.067-4.017.247-8.089.2-12.757-.028-2.637.715-4.451,1.345-7.06.812-3.362-.014-5.943.263-9.194.221-2.584,1.2-5.179,1.329-7.931.136-2.808-.1-5.958.3-8.716a47.14,47.14,0,0,0,.932-6.382,15.467,15.467,0,0,0,.223-2.724c.005.025-1.018-2.35-1.011-1.3-.03-3.9,1.926-7.721.9-12.48-.844-3.908-1.55-3.267-5.492-3.025-3.11.191-6.218.4-9.334.408-4.036.016-17.017-2.783-19.938.062-2.419,2.356-1.013,13.508-1.178,16.876-.266,5.482,4.983,7.159,6.439,12.758,2.774,10.675-1.809,24.766-14.317,25.678-11.667.852-22.859-8.741-21.257-20.532.643-4.732,2.823-9.882,6.938-12.651,3.981-2.679,12.437-.659,15.21-3.888,1.293-1.507.78-7.363.93-9.328.218-2.859,1.528-8.579-.356-9.933-2.128-1.531-8.7-1.561-11.127-1.567a58.8,58.8,0,0,1-9.989-.583c-7.558-1.28-15.093-1.229-22.518-2.9A118.258,118.258,0,0,1,290.586,420Zm-90.075,0c-1.535-.038-4.834,12.67-5.7,14.912-2.377,6.127-3.351,12.307-4.673,18.75-1.358,6.615-2.574,13.337-4.333,19.855-1.321,4.9-1.025,9.64-2.8,14.57.47,3.052.048,8.326,3.42,9.639,3.048,1.186,5.029-1.711,6.162-4.221,3.057-6.782,2.075-15.832,3.19-23.124,1.315-8.608,1.392-17.088,2.424-25.708C199.1,437.078,202.183,427.486,200.511,420ZM333.6,245.855c-3.342,3.773-8.252,2.19-12.655,1.771,1.868,4.246,4.55,8.79,4.65,13.544.051,2.467-1.276,4.656-1.262,7.009.016,2.333,1.908,4.51,2.806,6.676,4.033,9.719,5.008,22.887,5.159,33.323.311,21.59-6.152,44.587-19.9,61.515a60.011,60.011,0,0,1-9.806,9.691c-1.982,1.531-11.111,5.169-11.538,7.321-.828,4.165,8.54,3.754,11.1,4.127,5.379.784,10.7,1.91,16.084,2.635,21.588,2.9,42.9,5.222,64.663,4.049,2.408-.129,6.911,1.07,9.187.106,2.674-1.132,1.762-3.385,1.7-6.02-.166-6.763.806-13.414,1.374-20.133.459-5.436-.785-4.711-4.77-7.719a28.819,28.819,0,0,1-9.495-13.837c-3.834,3.091-1.057,4.753-1.6,8.719-.666,4.837-3.936,4.044-6.093.807-3.346-5.022-3.05-12.96.077-17.979,2.8-4.494,12.8-11.395,18.464-9.339,7.544,2.736-.666,11.917-4.236,13.906.881,2.541,5.754,4.774,7.925,6.169,3.015,1.937,6.926,3.06,10.411,4.133a61.929,61.929,0,0,0,27.928,1.874c9.22-1.347,19.778-4.349,25.726-11.906,2.573-3.268,4.938-8.243,2.47-12.335-2.223-3.689-7.719-3.944-10.422-7.518-1.167-1.541-1.728-3.588-2.8-5.081-1.744-2.428-1.042-2-4.322-1.717-5.31.45-10.972.792-16.2-.487-3.93-.962-7.757-2.758-11.6-3.9a31.146,31.146,0,0,1-11.107-6.532c-7.28-6.361-14.407-13.273-21.148-20.2-6.7-6.89-10.993-15.759-17.266-23.066-7.109-8.279-13.945-18.863-24.365-23.421C336.739,239.413,336.848,242.182,333.6,245.855Zm-25.314,27.524c-1.014,1.06-.368,7.139-1.335,9.078-3.714,7.452-10.21,5.806-16.931,4.24-.579,5.972-1.027,12.7-3.437,18.263-1.077,2.485-2.778,4.619-3.647,7.216-.55,1.646-.328,3.734-.95,5.264-.672,1.654-2.375,2.928-3.371,4.559-1.2,1.969-1.833,3.807-3.416,5.531-3.464,3.769-8.168,6.964-10.818,11.461a8.92,8.92,0,0,0-1.246,5.362c.011.771.553,3.6.311,4.171-.883,2.093-4.06,2.633-4.411,5.336-.2,1.519.628,1.337.909,2.6.338,1.523.1,2.568.653,4.264.885,2.692,4.787,7.758,4.382,10.077,5.741,3.16,15.838,5.163,22.271,3.72,6.577-1.475,13.152-8.943,17.4-13.835,9.964-11.484,15.766-29.624,16.31-44.647.276-7.624-.739-15.283-1.1-22.894-.2-4.288.713-16.366-2.92-19.37C316.122,273.106,308.994,272.634,308.282,273.379Zm53.613,14.381c8.862.508,16.47,14.384,14.829,22.489-1.347,6.653-3.619,1.508-5.345-1.349-2.036-3.373-5.722-7.453-10.1-6.588-4.862.963-6.1,6.886-8.085,10.641-3.616,6.848-4.742-.505-5.544-4.661C348.29,300.164,351.274,287.152,361.895,287.76Z" transform="translate(212.517 -33.734)" fill="#ffaeae" fill-rule="evenodd"/><g transform="translate(0 0)"><path d="M40.147,668.658c4.621,1.435,8.954,3.548,13.407,5.435,5.054,2.143,8.583,2.518,14.1,2.509,21.369-.031,42.516,1.066,63.923,1.5,5.848.117,11.783.176,17.631.069,2.361-.042,4.676-.311,7.026-.5,1.519-.125,8.138.785,9.021.253,2.481-1.493,1.008-11.109,1.309-14.19a61.091,61.091,0,0,1,3.765-15.533c6.75-17.985,18.1-35.531,32.454-48.367-19.407-8.15-40.577-18.9-62.115-14.061-8.2,1.841-19.075,4.251-23.3,12.186-4.509,8.473-8.457,17.788-13.611,25.9-5.761,9.064-11.876,16.832-20.215,23.63-3.29,2.684-19.871,19.166-17.353,6.443.808-4.081,3.792-7.875,6.176-11.206,1.213-1.7,7.749-7.253,6.732-9.217-1.142-2.2-12.929-3.754-15.454-4.455-5.218-1.447-10.407-2.99-15.6-4.508,1.879,3.542,12.1,16.944,5.57,20.369-2.4,1.258-8.607-3.2-11.236-3.982-4.48-1.333-8.576-.456-12.98.865.115,2.162,4.362,2.19,5.774,3.667,2.064,2.161,3.515,7.988,1.895,10.577-3.016,4.823-14.69-.1-19.91,1.732,5.868,6.055,15.074,8.434,22.992,10.891ZM331.732,469.539c-.061.125.05.3.752.908.214-.769.6-.938,1.065-.727-.377-.41-.689-.626-1.065.727a4.087,4.087,0,0,1-.752-.908ZM329.947,467a.87.87,0,0,0,.946.668c-.026-.081-.049-.156-.068-.215-.324-1.01-.754-.839-.611-2.7a1.113,1.113,0,0,0-.232.937,1.076,1.076,0,0,0-.035,1.307Zm51.942,87.279a30.044,30.044,0,0,0-1.26-3.668c.623,1.11.633,2.478,1.26,3.668ZM181.121,677.16c7.735-.309,15.274-.171,23.006.165,16.523.72,33.121.825,49.612,2.151a207.462,207.462,0,0,0,23.915.625c7.074-.239,14.174.014,21.226-.579,7.744-.652,14.995-2.792,22.81-2.908,7.473-.111,16.372-.976,23.62.116,1.251.188,1.925.986,3.4,1.178,2.041.266,4.912-.565,7-.706,3.665-.247,7.717.158,11.292-.7a21.627,21.627,0,0,0,3.279-1.224,35.178,35.178,0,0,1,4.076-.922c-3.407-1.27,4.152-3.86,4.761-4a2.462,2.462,0,0,1-.744,1.939c1.934-1.484-.137-.936,3.026-2.44a20.507,20.507,0,0,1,5.337-1.208,22.331,22.331,0,0,1,2.863-.028,2.5,2.5,0,0,1-.389-.6c-1.055-2.178,2.162-4.665,3.969-3.2-.209.426-.548,1.212-.957,1.985l.052-.059c.67-.774,1.931-2.754,3.186-4.086-1.592-.878.355-2.072,1.089-3.3a4.226,4.226,0,0,1,1.347.9c-.418-.873-1.454-1.664-.847-3.36a4.758,4.758,0,0,1,1.21-1.73,2.528,2.528,0,0,1-1.855.8,8.907,8.907,0,0,0,1.612-3.322c.248-.985-1.13-1.936.179-2.827-.04-.928-.593-5.192,1.723-3.7h0s0,0,0-.006c-1.482-4.533-4-9.214-5.877-13.647-4.365-10.324-8.852-20.724-13.419-30.957-7.553-16.928-15.44-33.813-24.13-50.286-8.616-16.331-18.022-32.125-26.153-48.681-7.844-15.972-16.994-31.255-24.892-47.2-3.72-7.512-8.706-13.722-9.974-22.449-.411-2.827-.541-8.721,3.737-7.661,2.781.69,6.674,7.652,8.469,9.916,1.607-2.207,10.679-15.18,13.111-7.452,2.087,6.628-10.977,9.514-5.764,16.189.516.662,2.657,1.33,3.36,1.942a30.284,30.284,0,0,1,3.678,4.728c2.408,3.275,4.4,6.755,6.628,10.142.419.637,1.95,2.079,2.068,2.825.063.4-.27.8-.529,1.215,1.812,1.6,4.1,3.02,4.521,5.617a.589.589,0,0,1-.352.043c1.683,1.761,3.815,6.03,4.12,6.475,2.269,3.3,4.5,6.754,6.739,10.236,1.211,1.883,3.331,4.1,4.027,6.212.241.731-.464,2.041.193,2.727,1.73,1.8,3.42,1.417,4.713,5.037.509,1.424.554,3.418,1.373,4.641,1.311,1.961,3.188,2.885,4.414,5,2.324,4,5.111,8.4,6.576,12.44.006.016.007.032.013.048.05-.316.119-.659.2-1.034q1.245,2.237,2.489,4.475c-1.436-.28-2.2-.671-2.554-1.31a2.146,2.146,0,0,0,.24.668,7.5,7.5,0,0,0,2.314.642q.834,1.377,1.563,2.812a34.093,34.093,0,0,1,1.375,5.668c.123-.867.248-1.645.261-1.749q1.579,3.039,3.158,6.078c-1.91-1.468-1.8-1.717-3.621-1.753,2.293.046,5.761,3.265,6.08,6.357a3.076,3.076,0,0,1-.529,1.572c.063-.009.126-.017.2-.024,2.4-.2,1.7.281,2.609,2.281a16.337,16.337,0,0,1-3.128-1.543.827.827,0,0,0,.032.71c.6.945,5.456.334,2.334,2.433,2.594-1.743,3.89,3.98,3.007,5.947.7,1.007,1.531,1.937,2.313,2.87a26.227,26.227,0,0,1,4.245,6.824c2.144,4.754,4.7,9.472,7.047,14.135a46.734,46.734,0,0,0,3.019,4.93c1.936,2.921,1.6,2.192.068,5.374.573-.186,1.421.265,2.242.92a1.681,1.681,0,0,0-2.242-.92c1.938-4.037,3.6.882,4.494,3.2-.04,0-.073-.011-.11-.013a3.029,3.029,0,0,1,.269.466h0c.911,1.878,1.985,3.028,1.208,5-.223-1.095-1.112-1.942-1.489-2.884.532,2.3,3.036,5.046,3.791,6.566.628,1.262.717,2.588,1.489,3.962a24.018,24.018,0,0,1,1.935,3.635c2.692,7.136,4,15.084,5.7,22.58a159.016,159.016,0,0,1,3.264,27.334,17.553,17.553,0,0,1-.755,7.466c-.138.363-1.615,2.293-1.577,3,.2,3.687,7.13,2.921,9.794,2.815,4.236-.17,7.118.514,11.186,1.1,3.753.542,7.436.245,11.247,1.166,6.33,1.529,15.755,3.952,21.875.592,2.958-1.624,6.685-6.333,8.832-8.976,2.643-3.252,3.532-6.565,4.005-10.707.808-7.088.864-14.919-1.6-21.692-11.45-31.474-31.091-60.085-48.03-88.728-15.894-26.878-33.713-52.355-49.641-79.16-8.419-14.17-18.549-28.189-28.563-41.285-10.236-13.385-17.541-27.949-24.758-43.1-7.479,3.966-15.4,8.046-23.762,9.838-4.756,1.02-9.478.71-14.274,1.04-3.534.242-6.491,1.077-10.09,1.169-15.785.4-34.023-1.489-49.111-6.152a74.146,74.146,0,0,1-10.25-3.89c-4.333-2.057-5.5-2.93-5.75,1.852-.475,9.257-1.987,18.256-2.7,27.458-.694,8.972-2.5,17.817-4.1,26.681-.809,4.489-1.681,8.973-2.345,13.486-.5,3.424-2.025,8.186-1.421,11.609.666,3.778,4.246,7.612,6.3,10.836,2.078,3.271,4.168,6.534,6.242,9.809a177.848,177.848,0,0,0,12.351,17.6c8.513,10.446,15.76,21.369,23.832,32.155,8.571,11.455,15.7,23.827,24.107,35.4,4.443,6.113,8.987,11.878,11.9,18.762,2.416,5.71,7.278,10.963,10.25,16.613,3.9,7.42,8.869,14.216,12.745,21.672,2.707,5.208,7.933,10.506,8.482,16.559.919,10.155-8.737.007-10.971-2.824-3-3.8-6.284-10.445-10.788-12.5-3.216-1.47-7.914-1.311-11.4-2.461-3.659-1.206-7.249-2.458-10.944-3.561-7.2-2.15-14.139-5.185-21.134-7.915-7.242-2.826-14.481-5.678-21.586-8.821a39.225,39.225,0,0,0-9.575-2.834c-1.512-.273-6.922-2.828-8.113-2.611-2,.364-4.759,6.245-6.276,7.757-2.338,2.331-4.968,4.238-7.153,6.746a187.642,187.642,0,0,0-12.592,15.576c-8.336,12-16.132,25.1-19.1,39.553-1.33,6.486.223,6.916,6.494,6.665Zm216.806-15.683a1.419,1.419,0,0,0,.1-.314,1.686,1.686,0,0,1-.1.314c-.988-.586-1.249-.275-1.35.2a1.266,1.266,0,0,1,1.35-.2Zm2.3-6.7a2.829,2.829,0,0,0,.065-.507,3.909,3.909,0,0,1-.065.507,1.2,1.2,0,0,0-1.425,0,1.306,1.306,0,0,1,1.425,0Zm-.992-4.384a1.69,1.69,0,0,1-1.037-.579,11.3,11.3,0,0,1,.892,1.01c0-.043-.011-.085-.014-.129a.5.5,0,0,1,.159-.3Zm98.291-36.719c2.247,5.3,3.183,11.095,5.092,16.521a50.278,50.278,0,0,1,2.425,12.592q-2,1.472.09,2.594a20.562,20.562,0,0,1,.1,2.84,19.009,19.009,0,0,1-.9,7.818,41.277,41.277,0,0,1-4.783,10.85c13.081,4.438,27.983,5.687,41.707,5.366,7.418-.175,15.739-.19,22.966,1.639,7.783,1.971,14.608,1.147,22.6.459-1.168-2.353-5.632-6.279-7.892-7.914-1.151-.831-3.044-.973-3.917-1.9-1.245-1.328-1.391-3.905-1.875-5.646a336.835,336.835,0,0,1-7.3-33.642c-3.413-20.012-5-40.5-6.005-60.659-.085-1.706-.966-3.62-.924-5.235.057-2.122.663-2.817.492-4.95-.11-1.391-1.778-3.279-1.657-4.516.076-.775,1.974-.106,1.86-1.622-.177-2.337-3.2-5.416-3.888-7.513-.3-.933.833-1.862.8-2.881.01.29-.751-3.152-.779-3.276-.23-.99-1.156-1.405-1.106-2.617.046-1.1,1.651-2.545.782-3.687s-2.7.592-3.255-.417c-.63-1.145,2.14-5.055,1.832-6.829-.538-3.1-2.65-6.441-3.476-9.592-.31-1.182.188-2.642-.772-3.665-1.673-1.781-3.125.045-5.537-.552,2.393-2.033,2.92-3.993,2.21-6.972-.576-2.42-1.687-5.037-4.3-2.647.344-3.151.713-3.47-1.549-6.1a47.393,47.393,0,0,0-6.822-6.732c-3.494-2.6-9.072-3.941-13.216-4.247-4.524-.334-10.084,2.09-13.507,5.509-4.164,4.158-9.549,7.189-14.272,11.164C487.7,501.456,483.366,506.5,478.52,511c-.995.923-2.826,3.506-4.363,3.061-2.507-.724-.483-4.465.067-6.13,3.907-11.839,10.93-23.767,20.59-31.844,4.982-4.167,9.938-9.437,15.729-12.471,4.679-2.452,8.333-2.066,13.306-2.241,4.252-.15,5.126-.4,8.917,1.388a81.768,81.768,0,0,1,7.884,4.057c4.056,2.478,8.238,5.491,11.235,9.236,7.979,9.974,11.094,22.656,14.229,34.81,3.451,13.368,5.826,26.43,6.244,40.3.425,14.114,1.079,28.019,2.471,42.077q1.086,10.965,2.5,21.89c.87,6.716.916,13.936,2.269,20.531a25.978,25.978,0,0,0,3.175-7.078c.635-1.8,1.279-1.739,2.2-3.068A40.177,40.177,0,0,0,590.12,613.9c.47-2.122.036-3.186.906-5.053.269-.577,1.73-.126,1.964-1.039.168-.655-.747-1.162-.706-1.385.1-.517-1.326-1.091-.1-2.717,1.744-2.308.852.588,1.794.548.785-.033-1.571-8-1.293-9.157.1-.409,1.433-.464,1.54-.844.324-1.149.251-2.813.567-4.06.773-3.043,1.92-4.264,1.976-7.74.074-4.593,1.777-7.846,2.6-12.229.158-.842-.769-1.754-.6-2.482.352-1.483,1.45-2.782,1.854-4.352.778-3.023-.261-7.288-.048-9.747.187-2.151.79-5.642,1.187-8.314.646-4.351-.515-2.931-2.4-5.667,2.619-.846,2.286-.1,3.123-2.917.966-3.251.877-5.168-2.073-3.368.784-1.932,2.239-4.3,2.559-6.367.3-1.922-.406-3.688-.205-5.6.545-5.166,2.157-7.97-.778-12.984,3.772-1.931,2.129-8.585,2.72-12.3.637-4.007,2.183-7.749-.8-10.359,3.066-2.206,1.852-8.534,1.839-11.913-.005-1.533-.525-4.231-.393-5.592.092-.957.743-1.6.932-2.715.7-4.13-.842-8.22.084-12.329a86.814,86.814,0,0,0,1.523-13.118c.346-4.4,1.026-8.97,1.319-13.479.216-3.345,1.521-6.965.92-10.431-.047-.273-.844-2.739-.867-2.182a24.974,24.974,0,0,1,.716-2.526,111.5,111.5,0,0,0,.118-11.354.215.215,0,0,1,.025,0,2.119,2.119,0,0,1-.786-1.908c-3.753-.363-7.858.554-11.651.654-4.087.109-8.162-.1-12.244-.283-2.627-.122-8.287-1.366-10.287.827-1.449,1.588-.538,9.765-.634,11.891-.114,2.513-1.386,6.456.084,8.654.911,1.365,2.972,1.91,4.035,3.407a15.227,15.227,0,0,1,1.516,3.428,24.8,24.8,0,0,1,1.292,9.35c-.749,14.741-12.563,21.51-25.827,15.57-11.555-5.174-14.7-20.824-4.768-29.594,2.337-2.065,4.828-2.589,7.811-3.1,1.9-.324,7.069-.125,8.308-1.479s.93-5.53,1.066-7.272c.219-2.8,1.343-6.953.734-9.652q1.5-3.373-2-2.855l-2.217-.446a50.713,50.713,0,0,0-5.582-.874c-3.371-.232-6.657.168-10.029-.282-3.308-.443-6.551-1.27-9.865-1.7-3.521-.455-6.98.051-10.465-.547-7.233-1.239-15.005-2.9-21.773-5.748-1.812-.76-4.884-2.953-6.9-2.591-2.409.434-1.765,1.966-2.459,4.256-3.847,12.706-11.842,25.26-20.3,35.362-7.987,9.535-18.516,17.224-28.04,25.222q-8.66,7.273-16.678,15.245c-3.89,3.847-8.064,9.861-13.089,12.079-1.145.043-5.561-.463-6.368.365-.932.953-.875,1.485-.5,2.08-1.067-2.811,4.011-2.338,6.872-2.445-.324.545-3.536,6.989-4.331,3.4l-1.384.825a89.02,89.02,0,0,0,8.451,14.614c2.34,3.292,5.364,5.672,7.465,9.084,2.651,4.305,4.86,8.773,8.219,12.608,6.7,7.651,10.426,17.938,16.267,26.427,2.806,4.08,4.271,7.872,7.192,11.933,2.284,3.178,5.985,7.2,7.316,10.854.531,1.462-.039,2.73.935,4.084.615.856,2.437,1.784,3.3,2.672,3.412,3.525,6.073,8.554,8.75,12.7,2.851,4.415,4.837,9,7.252,13.6,2.477,4.72,6.577,8.065,8.722,13.123Zm88.806,20.147c1.775.027,2.44.036,2.638-.742a3.728,3.728,0,0,0,.068-.935,3.728,3.728,0,0,1-.068.935c-.2.778-.863.768-2.638.741Zm-.222-6.609c-.183.5.922,1.338,3.86,1.027-2.91.309-4.023-.527-3.86-1.027Zm7.225,16.593c-.263.233-.519.476-.768.726.248-.25.5-.493.768-.726Zm18.323,34.7c2.392-.836,8.617-2.315,12.669-4.064-1.807.507-3.689.924-4.413,1.176q-4.127,1.445-8.256,2.888c-3.9-14.053-18.535-19.409-31.059-24.6,6.034-.253,8.189-5.491,11.836-9.234-3.64,3.734-5.83,8.982-11.836,9.234,12.522,5.188,27.161,10.546,31.059,24.6Zm13.69-14.147c.137.228.273.463.41.72a42.818,42.818,0,0,1,2.37,5.871c.119-2.108-1.132-4.572-2.78-6.591ZM611.568,397.541a1.222,1.222,0,0,0-.567-.091c.655.03.833.807.861,1.886.569-.6.7-1.4-.294-1.8ZM566.11,430.013c-4.265,2.118-8.4,3.351-12.473,5.912,4.992,3.882,20.929,10.149,20.453-1.844-.056-1.4-.872-5.152-2.148-5.984-1.94-1.263-4.14,1.076-5.832,1.916Zm48.827-55.844c-18.782,6.555-40.663,4.935-59.753,1.738-20.509-3.434-40.987-5.457-60.855-11.885-.02,2.766-1.22,5.664.973,7.945,1.718,1.788,5.444,2.126,7.715,2.879,5.94,1.97,11.041,4.839,17.25,6.016,6.955,1.319,13.9,1.292,20.916,2.072,2.541.283,4.93.737,7.315,1.2a33.8,33.8,0,0,1,9.192,1.414c11.8.055,23.52.4,35.271-1,5.968-.715,11.871-1.59,17.855-2.2,5.6-.571,4.352-2.987,4.121-8.176Zm7.185-50.414c11.061,3.055,22.468,2.141,33.351-1.357,7.869-2.528,18.309-6.233,19.964-15.81,1.093-6.318-2.694-7.464-7.147-10.086a12.164,12.164,0,0,1-4.6-4.329c-.85-1.263-1.615-4.432-2.57-5.3-2.326-2.106-9.667-.257-13.307-.42-5.424-.242-9.1-2.066-14.091-3.674-8.814-2.843-14.391-6.29-21.233-12.794-6.656-6.327-14.47-12.762-19.852-20.217-6.026-8.348-11.794-16.472-18.359-24.434-4.864-5.9-13.69-17.71-22.418-17.656-4.381.027-3.733,4.16-7.213,6.259-3.177,1.917-7.333.583-10.824.252,2.3,5.231,5.494,10.612,4.364,16.532-.633,3.315-.97,4.459.325,7.6a55.487,55.487,0,0,1,3.2,8.475c2.855,11.96,4.206,25.422,3.009,37.652-2.073,21.171-9.327,43.03-25.2,57.976a50.663,50.663,0,0,1-12.028,8.373c-4.419,2.236-4.785,4.565.69,5.563,10.664,1.946,21.489,3.275,32.229,4.719s21.643,2.949,32.46,3.17c5.35.11,10.669.776,16.018.4,2.664-.189,5.312-.665,7.983-.739,2.332-.064,5.815,1.1,7.985.182,3.4-1.439,1.708-11.383,1.957-14.836.287-3.963,2.787-11.395,1.3-15.141-1.044-2.63-4.874-3.733-6.858-5.78-3.256-3.359-6.336-7.341-7.579-11.92-4.124,3.328-.576,5.463-1.828,9.521-1.366,4.428-3.884,3.036-5.856,0-3.292-5.072-3.071-12.91.077-17.967a19.687,19.687,0,0,1,7.818-6.686c2.458-1.265,7.9-3.746,10.617-2.647,7.385,2.984-.475,11.8-4.229,13.9.9,2.606,7.3,6.365,9.737,7.477,3.623,1.654,8.214,2.675,12.1,3.749ZM520.76,242.981a15.654,15.654,0,0,1-.716,4.132,11.551,11.551,0,0,1-5.5,6.538c-5.108,2.66-15.467-1.17-19.958-4.308,0,9.511-1.7,17.076-4.433,26.1-2.639,8.729-8.042,15.833-12.638,23.583-2.383,4.019-4.571,8.168-7.936,11.468-3.42,3.353-3.99,4.639-3.677,9.584.513,8.146,4.392,13.7,11.724,17.074,5.81,3.22,17.8,5.836,24.134,3.146,6.653-2.83,13.133-10.154,17.442-15.792,9.788-12.808,14.753-32.1,14.158-48.023-.31-8.294-.749-16.781-1.543-25.046-.577-6.02-.366-14.676-9.125-11.963-2.829.876-1.7.222-1.932,3.509ZM487.155,354.2c-.845-1.721-8.277-3.449-9.571-2.441-1.963,1.531-2.045,10.456-2.734,13a77.589,77.589,0,0,1-4.265,11.82A78.947,78.947,0,0,1,455.537,399c-6.417,6.435-13.79,10.894-21.582,15.506-2.226,1.319-4.381,2.909-6.668,4.106-.96.5-2.738.737-3.494,1.491-1.87,1.87-1.005,5.707-.984,8.141.09,9.752.058,19.187-1.235,28.806,7.634-5.909,14.531-13.408,21.328-20.3,7.126-7.224,16.3-11.993,23.06-19.643,6.148-6.959,10.987-15.071,15.5-23.121,1.978-3.527,5.747-8.023,5.882-12.146.147-4.445-1.88-9.151-1.9-13.755-.016-3.258,2.964-11.333,1.71-13.891Zm-91.669,99.547c.464,2.945.094,9.257,4.19,9.891,2.82.437,4.555-2.239,5.589-4.481,3.121-6.776,2.089-15.812,3.255-23.091,1.377-8.593,1.409-17.066,2.474-25.672.938-7.588,4.069-17.16,2.362-24.639-1.547-.038-5.725,14.6-6.627,16.914-1.857,4.778-3.994,8.8-5.6,13.751a115.984,115.984,0,0,0-4.952,19.688c-.689,4.824-3.274,13.392-.691,17.639Zm-22.659-32.352c3.823,5.934,7.951,12.117,13.338,17.068,0-2.769,2.07-11.768.666-13.908-1.671-2.549-11.156-2.666-14-3.16ZM521.111,187.685c-3.248-1.474-6.872-1.939-10.147-3.462a23.9,23.9,0,0,0-8.934-2.621c-12.08-.991-24.38,2.1-35.557,5.483-6.152,1.861-11.005,5.939-16.2,9.472-5.375,3.654-8.322,6.836-10.663,13.019a181.848,181.848,0,0,0-10.137,39.9c-2.032,14.231,1.268,28.614,1.062,42.875-.2,14.068-1.206,28.715-5.676,42.11-3.455,10.357-9.579,27.029-22.485,28.061-12.253.981-22.618-11.652-27.682-21.135-13.392-25.073-18.423-53.735-19.15-81.874-1.89-9.417-2.972-19.57-6.249-28.6-3.644,5.7-6.615,11.815-9.966,17.688-3.677,6.448-3.44,11.708-3.122,19.034.247,5.7,2.256,11.138,2.988,16.811.843,6.548,2.393,12.933,2.765,19.546.437,7.8,0,15.679.66,23.458.551,6.542,1.995,13.112,3.043,19.593a101.368,101.368,0,0,1,.994,18.778c-.145,6.077-2.246,11.978-7.395,15.23,7.653,9.444,17.193,23.352,30.013,25.59a124.7,124.7,0,0,0,12.665,1.652c3.538.259,7.674,2.245,10.726.038,5.253-3.8,6.288-12.261,8.274-17.8,1.373-3.828,14.989-35.187,22.156-26.3,1.277,1.582.975,7.392,1.17,9.621.282,3.214.152,6.482.255,9.707a122.79,122.79,0,0,1,.21,12.372c-.174,2.475-1.66,5.146,1.143,5.743,2.594.552,8.064-4.6,9.952-5.937,2.533-1.791,5.264-3.135,7.831-4.861A54.077,54.077,0,0,0,456.87,377.8a87.3,87.3,0,0,0,9.7-16.624c1.3-2.951,2.36-5.974,3.444-9.005a34.141,34.141,0,0,0,1.52-4.022c-.287-.854-3.742-2.273-4.595-2.946-9.749-7.694-11.7-26.827-9.109-38.017,1.568-6.771,6.756-12.72,10.442-18.485,3.559-5.568,7.325-11.022,10.279-16.949,3.256-6.528,5.772-13.383,8.693-20.059,1.409-3.223,3.1-4.88.995-7.831-1.29-1.809-3.96-2.55-5.109-4.53s-1.277-5.836.8-7.26c2.277-1.559,5.586.618,7.672,1.467,2.784,1.132,5.565,1.68,8.406,2.551,3.225.989,6.129,3.177,9.553,3.177-1.841-6.341-9.8-5.74-12.378-11.636-1.763-4.03-1.533-11.529,3.965-12.194,3.121-.377,5.584,2,7.9,3.6,3.056,2.1,5.362,2.495,8.94,3.153,1.318.244,3.458,1.479,4.708,1.059,2.028-.68.857-.26-.205-1.927-1.578-2.479-5.312-4.9-7.569-6.708-5.074-4.068-12.107-7-16.5-11.729-2.906-3.127-4.333-13.64,1.187-15.317,2.214-.674,5.816,1.522,7.985,2.193,3.666,1.135,7.4,2.038,11.018,3.332,6.425,2.3,12.594,5.028,19.113,7.09-3.714-5.287-10.767-9.846-16.622-12.505Zm-217.269-1.55c0,3.633-1.386,10.54.178,13.843,1.411,2.974,9.977,4.632,13,5.768,9.8,3.68,19.512,7.777,29.526,10.824-10.32-15.285-25.657-24.158-42.706-30.435Zm1.444-49.355c2.539,3.645,6.951,8.589,12.115,6.866,5.565-1.858,9.924-10.379,7.081-15.787-2.429-4.62-9.361-7.518-13.642-3.877-.933.794-1.543,2.825-2.436,3.446-.575.4-1.484-.667-2.184-.241-2.071,1.257-2.867,4.326-5.854,4.069-1.382-.118-5.812-3.729-6.718-4.652-2.426-2.471-1.58-5-1.964-8.251-.528-4.473-3.615-5.16-7.167-7.468-3.381-2.2-6.1-5.476-9.445-7.594-3.993-2.528-1.7.678-5.353,1-.658.057-2.127-2.129-3.27-2.093-1.48.047-2.123,1.033-2.968,2.108-1.838,2.335-.486,3.068-3.689,3.612-2.313.392-3.744-1.287-5.721-1.254-1.617-1.831-4.012-5.655-6.9-4.526-1.957.765-2.658,4.865-3.077,6.577-1.59,6.49-1.47,14.118-1.529,20.774,3.719-2.61,4.2-4.364,5.363-8.571.755-2.735,2.579-6.752,4.567-2.645.565,1.165.081,2.953.454,4.233.433,1.486,1.471,2.218,1.632,3.838.391,3.93-2.829,5.278-5.606,7.192,2.592,2.794,10.05.685,8.061,6.65-2.1,6.3-10.181,2.813-14.211,1.232-3.435,13.021,11.827,19.3,21.128,22.857,5.461,2.091,7.6,3.256,8.348,9.632a33.636,33.636,0,0,1-2.1,16.166,53.546,53.546,0,0,1-2.667,6.736c-.929,1.6-2.78,1.715-3.4,2.611-2.3,3.3-.644,10.464-.375,14.426.735,10.833,4.11,20.7,5.561,31.271.744,5.407,2.971,10.469,3.927,15.813.876,4.9,1.222,9.532,5.353,13.038,8.3,7.045,14.725-3.359,17.6-10.2,4.1-9.741,4.507-22.543,3.831-32.931-.735-11.291-5.9-22.139-6.174-33.347-.291-11.985,1.519-23.365,4.517-34.953,1.31-5.065,3.219-9.6,4.836-14.5,1.323-4-.866-7.619,2.078-11.257ZM283.7,18.2a.116.116,0,0,1,0,.026c.052-.059.105-.115.162-.184a1,1,0,0,1-.16.158Zm-.247-1.123a13.6,13.6,0,0,1,.58-2.39c-.45.277-.96.509-.977.8a2.473,2.473,0,0,0,.4,1.591ZM271.13,19.219c.086.049.169.1.257.15a1.282,1.282,0,0,0,.531-.112,1.432,1.432,0,0,1-.2.028,1.8,1.8,0,0,1-.591-.066ZM264.686,17.1a8.37,8.37,0,0,1,3.719.468,3.682,3.682,0,0,0-.645-.321,10.9,10.9,0,0,0-3.074-.147Zm65.351,316.746c-.248-5.422-.244-7.05-4.5-10.546-3.552-2.914-6.988-5.973-10.576-8.844-7.947-6.359-16.437-13.091-25.471-17.84-5.062-2.66-18.874-8.02-15.384,2.48,3.295,9.91,9.651,18.712,15.123,27.515,5.578,8.975,11.159,17.956,16.953,26.792,2.522,3.843,5.181,7.613,7.593,11.524,2.374,3.851,2.618,6.447,7.485,4.853a113.248,113.248,0,0,0,10.87-4.079c2.93-1.324,2.755-2.132,2.836-5.576-1.815-8.9-4.5-17.066-4.924-26.279ZM307.364,225.348c1.231,4.96,10.067,5.551,14.833,6.513.819.165,4.971,1.508,5.746,1.047,1.529-.909.777-3.538,1.429-4.811,3.568-6.969,3.621,1.94,4.637,4.038,2.782,5.747,7.045-5.76,8.607-8.577,1.2-2.169,2.491-3.271,1.246-5.091-1.036-1.516-6.8-2.556-8.575-3.21q-9.688-3.579-19.342-7.247c-2.773-1.048-11.313-6.531-11.219-1.261.921,6.064,1.164,12.666,2.638,18.6Zm4.829,59.232c2.717.844,10.1,4.231,12.846,2.634,2.321-1.348.718-6.074.457-8.533a90.684,90.684,0,0,1-.157-14.33c.388-6.869.959-7.411-5.818-9.258-2.619-.715-10.614-4.583-12.56-2.4-.908,1.019-.524,4.257-.724,5.491a38.97,38.97,0,0,1-2.153,7.8,63.714,63.714,0,0,1-6.724,12.149,64.778,64.778,0,0,0,14.833,6.445Zm15.344-48.567c-1.174-1.687-7.014-1.928-8.945-2.336q-5.118-1.082-10.239-2.156c-.184,4.157-2.533,15.014.457,18.013,1.681,1.687,7.3,2.122,9.685,2.708q3.891.957,7.79,1.891c.295-4.006.54-8.015.967-12.011.156-1.469,1.239-4.737.285-6.109Zm-.674,54.882c-1.8-2.067-6.655-2.007-9.356-2.638a78.34,78.34,0,0,1-12.453-4.083c-2.279-.952-6.768-4.212-9.288-3.386-.706.231-2.183,3.138-2.719,3.684a21.04,21.04,0,0,1-3.169,2.305,18.292,18.292,0,0,1-8.172,3.352c18.09,7.418,32.624,20.616,47.587,32.791,1.061-.89.472-8.849.355-10.675-.217-3.389-.362-6.821-.616-10.221-.208-2.795-.262-8.934-2.169-11.129Zm-54.934,72.169c.546,3.087.628,7.327,1.952,10.179,1.213,2.612,1.065,2.43,4.292,2.508,4.077.1,8.754.782,12.7-.459-3.525-7.785-6.458-16.245-11.281-23.348-1.515-2.23-4.441-7.94-7.61-7.6s-2.481,3.531-2.229,5.838c.47,4.308,1.42,8.615,2.175,12.882ZM256.048,241.626c-2.449-16.794-2.242-33.213-2.242-50.126-3.907.517-8.211.192-11.978,1.3,1.216,3.878,4.723,7.376,1.252,11.057-3.525,3.74-11.743,5.38-16.508,6.757-5.581,1.613-11.27,3.584-17.005,4.543a23.069,23.069,0,0,1-7.985.348c-4.118-.791-4.481-1.883-7.187,2.358-.014.023-.038.057-.052.082a5.013,5.013,0,0,1,2.6-.16c-.1.342-.242.682-.327,1a8.422,8.422,0,0,1,2.57-1.146c2.693-.473,6.108.735,8.7,1.333a158.823,158.823,0,0,1,17.216,4.8,133.6,133.6,0,0,1,13.956,5.747c3.49,1.7,11.551,4.688,12.653,8.847,2.111,7.975-18.956,14.034-24.094,16.734-4.852,2.549-3.319,6.33-3.375,11.395-.059,5.5-.557,10.95-.176,16.439.295,4.253.621,3.594,4.864,3.518,3.177-.057,6.355-.185,9.529,0a44.1,44.1,0,0,1,13.281,2.516c6.288,2.436,18.365,14.033,6.33,17.567-4.955,1.455-11.345.923-16.424.572-4.4-.305-11.307-2.31-15.557-.8q-3.324-.942-2.4,2.416l-.306,4.6q-.307,4.632-.616,9.262-.63,9.477-1.259,18.956c3.693-5.234,8.773-15.559,16.642-14.38,6.754,1.012,10.748,11.486,12.922,16.891a111.457,111.457,0,0,1,4.105,13.564c1.149,4.4,1.568,10.61,3.669,14.593,2.068,3.923,4.944,2.606,9.179,3.009,5.3.505,3.16-2.459,2.319-6.959-1.282-6.855-5.819-18.681-1.445-25.07,5.586-8.155,13.477,6.956,15.622,11.037a107.836,107.836,0,0,1,5.253,11.794c.992,2.6,1.794,8.209,4.353,9.63,3.135,1.743,8.1-1.043,10.984-1.954a101.784,101.784,0,0,1,10.549-2.217C305.778,356,295.5,340.76,285.9,325.1c-4.795-7.829-10.844-16.048-13.477-24.9a12.53,12.53,0,0,1-.909-5.065c.176-1.522,2.465-3.916,2.32-4.973-.215-1.566-3.36-2.874-4.83-4.52-5.108-5.719-6.392-12.526-7.978-19.8-1.726-7.913-3.818-16.221-4.982-24.215Zm-19.3-48c-7.531-1.623-16.086,2.7-22.383,6.2-4.155,2.305-15.242,7.122-15.669,12.765.116-1.531,10.312-.576,12.327-.526,8.614-1.865,17.8-4.38,25.839-8.1,2.927-1.354,6.365-2.68,5.3-6.155-.7-2.283-3.279-3.723-5.413-4.183Zm8.734,111.023c4.761-.274,22.043-.087,13.345-8.715-5.445-5.4-15.472-6.577-22.714-6.606a72.581,72.581,0,0,0-7.73.458l-2.121.252q-3.24-.645-2.023,2.681c-.387,1.3-1.007,8.988.132,10.07,1.511,1.434,6.323.8,8.1.94,4.353.34,8.646.946,13.014.92ZM220.2,370.023c12.524,1.866,25.026,4.245,37.724,4.444a165.833,165.833,0,0,0-7.554-27.309c-2.206-5.635-6.211-17.8-13.929-17.2-6.161.477-13.35,11.034-15.068,16.426-2.239,7.03-1.173,16.329-1.173,23.64Zm-32.161-140.7c.25,1.283,5.87,3.59,7.073,4.288A62.579,62.579,0,0,1,216.7,254.607c.577-3.276.485-9.488,3.23-11.815,4.832-4.1,3.84,5.08,4.417,7.883.542,2.629-.131,2.2,2.136,2.438,2.011.207,7.142-3.559,9-4.508,5.129-2.623,10.044-5.478,14.971-8.456-4.081-6.744-16.118-9.839-22.973-12.536-9.851-3.877-19.561-5.86-29.985-7.465-1.744.907-1.97-1.134-3.273-1.591a.508.508,0,0,1-.1-.276c-1.531,2.275-6.447,9.135-6.075,11.045ZM175.29,320.2c-4.852,22.292-6.06,45.483-12.188,67.505-5.826,20.935-11,41.777-17.731,62.427-3.877,11.9-7.476,23.91-12.659,35.333-3.614,7.966-6.482,24.957-15.287,28.686-5.764,2.44-8.319.279-7.7-5.565.534-5.086,3.171-8.281,5.348-12.674.759-1.529,3.227-5.847,2.958-7.47-.334-2.018-.847-1.8-2.951-2.8a74.757,74.757,0,0,0-13.681-4.781c1.92,2.977,5.753,7.234,6.061,10.874.255,3.005-1.9,8.515-4.887,9.667-2.821,1.09-6.14-1.207-8.555-2.609-2.8-1.622-5.46-2.074-8.538-3.225,3.922,5.651,10.347,10.153,7.6,17.926-2.934,8.293-12.04,1.511-17.863.574,1.663,6.425,9.042,13.75,14.349,17.326a107.228,107.228,0,0,0,11.253,6.507c1.481.751,3.425,1.211,4.785,2.107.517.341,1.387,1.787,1.857,2.013,6.6,3.19,15.613,4,22.8,5.537a84.3,84.3,0,0,0,22.882,1.71c6.743-.324,14.214-4.466,19.848-7.945,4.285-2.644,4.91-5.876,6.244-10.545,2.21-7.737,4.19-15.524,6.3-23.288,1.82-6.693,2.666-13.124,3.9-19.915,2.611-14.393,3.813-29.013,6.615-43.381,2.781-14.271,3.712-28.728,4.482-43.316.37-7.026,1.515-14.193,1.863-21.082.283-5.6.187-11.243.157-17.007-.023-4.05,1.413-8.1,1.315-12.164a78.375,78.375,0,0,1-.036-10.463c.809-7.737,1.442-15.382,2.05-23.13,1.187-15.1,4.678-30.006,6.07-45.044.6-6.5-6.536-12.741-11.372-16.529-5.154-4.036-9.29-9.705-14.962-12.882-2.1,26.083-4.745,52.031-10.316,77.622Zm85.418,278.866q8.388,3.738,16.778,7.478c4.112,1.83,9.508,5.591,14.028,5.252-3.213-4.353-5.237-9.332-8.664-13.559s-6.245-8.706-9.339-13.167a172.485,172.485,0,0,1-12.8,14Zm-1.19-21.889c-8.46-4.462-20.481-12.942-30.4-11.342-7.143,1.151-15.233,6.381-19.546,12.14-2.023,2.7-4.046,5.221-6.361,7.868-2.122,2.426-3.211,2.111-1.355,4.641,1.426,1.946,4.79,3.264,6.979,4.016,0-4.258-1.325-8.527,3.792-8.106,2.018.166,4.372.648,6.384.977,1.734.283,2.738,1.035,4.216,1.384,1.577.37,3.46-.066,5.094.062,2.815.22,5.067,1.349,7.733,1.939a146.65,146.65,0,0,1,15.541,4.716c2.457-3.757,4.521-8.271,7.859-11.341,3.731-3.433,5.322-4.18.061-6.954ZM332.1,14.75a3.213,3.213,0,0,1-2.367-1.643c1.1,1.843,1.745,1.926,2.367,1.643Zm25.361,2.934a11.462,11.462,0,0,0-2.77.779,6.369,6.369,0,0,0-1.661,1.179c.2-.087.416-.18.66-.282,1.057-.442,2.409-1.239,3.771-1.676Zm16.912,139.739c.067-.089.129-.172.193-.254-.064.082-.126.165-.194.254Zm3.288.478a1.692,1.692,0,0,0,.779-.572,1.692,1.692,0,0,1-.779.572,2.293,2.293,0,0,1-.676.129,2.293,2.293,0,0,0,.676-.129Zm1.315-2.691a5.263,5.263,0,0,1-.089,1.036,5.263,5.263,0,0,0,.089-1.036Zm-3.981,1.456c.079-.084.158-.162.237-.235-.079.073-.158.152-.237.235Zm.677-.59a3.29,3.29,0,0,1,.383-.227,3.29,3.29,0,0,0-.383.227ZM235.029,21.356a2.144,2.144,0,0,1-.486.083.792.792,0,0,0,.486-.083Zm-4.351,2.915a3.517,3.517,0,0,0,1-1.453,1.7,1.7,0,0,1-.272.137l-.473-.469a1.248,1.248,0,0,1,.126,1.15c-.812,1.7-1.8-.883-3.027.394a16.688,16.688,0,0,1,2.643.241l4.238,5.818c-1.912.955-2.512-.224-3.58,1.516a1.918,1.918,0,0,0-.139.564c.444-1.269,1.6-1.025,3.719-2.08l-4.238-5.818Zm-3.662,4.269a.739.739,0,0,1-.26-.412,2.2,2.2,0,0,1-.068-.419,2.2,2.2,0,0,0,.068.419.739.739,0,0,0,.26.412.913.913,0,0,0,.338.148.913.913,0,0,1-.338-.148Zm-.4-2.061c.018.253.029.481.038.685-.009-.2-.02-.432-.038-.685Zm2.091,5.165a2.477,2.477,0,0,1-.2.308,2.7,2.7,0,0,0,.2-.308Zm2.124,7.63c2.02-1.082.266-2.444.183-4.106-.008-.148-.01-.273-.015-.409-.013.4-.016.731-.006.892.136,2.349,1.8,3-1.231,3.715a4.3,4.3,0,0,1-.781.086,3.759,3.759,0,0,0,1.85-.178ZM199.507,56.729c.126-.96-4.366-3.056-4.944-3.314.71.317,5.064,2.4,4.944,3.314Zm-5.109-8.5c.03-.013.064-.016.094-.03a2.01,2.01,0,0,1,0-.206.717.717,0,0,1-.1.236Zm-2.391,7.756c-.025-.1-.073-.383-.126-.715-.079.41-.167.794-.249,1.13a3.153,3.153,0,0,1,.375-.415Zm3.489-.059c0-1.628-.507-1.28-.824-1.231.289.436.826.518.824,1.231Zm4.74,3.575a1.5,1.5,0,0,0-1.236.491c.8-.211,1.454-.45,1.236-.491Zm3.854,9.3c.075.025.141.042.21.062-.069-.02-.135-.036-.21-.062Zm-.389-.14c.053.021.1.035.149.053-.05-.018-.1-.033-.149-.053Zm.729.239a2.554,2.554,0,0,0,.277.053,2.554,2.554,0,0,1-.277-.053Zm-2.963,56.269a1.384,1.384,0,0,0-1.112-.5,1.822,1.822,0,0,1,1.19,1.457.957.957,0,0,0-.078-.957Zm-3.533-10.408a.485.485,0,0,1,.1-.026c.989-.077,1.419.563,1.526,1.541-.067-.853-.353-1.549-1.091-1.776.038-.077.072-.149.108-.224a4.856,4.856,0,0,1-.644.485Zm1.173,5.27c.021-.116.045-.243.071-.375-.11.465-.237.929-.366,1.374a6.9,6.9,0,0,0,.295-1Zm-.861-16.2a1.931,1.931,0,0,0,.267.1,1.81,1.81,0,0,1-.267-.1Zm-.242-.143a1.267,1.267,0,0,0,.187.112,1.492,1.492,0,0,1-.187-.112Zm.555.256a2.652,2.652,0,0,0,.377.074,2.571,2.571,0,0,1-.377-.074ZM197.543,92.1c-.013.437-.015.873-.028,1.286a4.549,4.549,0,0,0,.028-1.286ZM1.5,675.515c2.7-2.429,11.751-2.59,15.344-3.272C9.072,664.8,3.228,646,18.08,643.587c3.288-.534,4.218.733,4.971-2.99.461-2.282-.479-4.384.653-6.657,2.688-5.4,12.9-4.794,18-5.571-1.219-4.285-4.209-11.939.295-15.418,3.553-2.744,10.949.919,14.724,2.094,10.2,3.175,20.564,6.8,29.169,13.194,3.857-5.206,7.889-10.342,11.124-15.971,3.086-5.37,5-11.307,7.9-16.774,2.908-5.483,5.995-11.947,10.057-16.659,3.439-3.99,8.155-4.385,12.693-6.289,11.51-4.83,21.485-4.553,33.513-2.768s22.444,8.817,32.626,14.952c4-13.477,13.241-28.12,27.571-32.276,6.431-1.867,13.2-.066,19.077,2.867,7.286,3.635,13.015,9.815,20.14,13.256-8.125-13.908-18.381-26.99-27.309-40.124-4.9-7.2-11.083-13.635-15.867-20.975-4.876-7.483-8.468-15.8-12-23.97-2.989,7.623-3.495,15.643-6.238,23.292-2.52,7.022-4.245,14.226-7.109,21.131-2.991,7.21-5.633,14.322-9.676,21.031-2.306,3.828-7.989,15.749-12.179,8.1-9.322,6.3-18.32,10.1-29.98,9.823-5.338-.126-11.284-.294-16.393-1.49-5.189-1.213-10.148-2.847-15.3-4.011-4.08-.92-7.809-3.411-11.52-5.256-4.269-2.122-8.5-5.937-11.794-9.283-4.081-4.143-8.3-8.131-12.4-12.248-4.06-4.074-3.767-8.232-5.938-13.295-2.267-5.282-3.239-9.951-.241-15.282,2.2-3.9,6.083-3.367,6.992-7.322.863-3.752.023-7.289,2.38-10.731,1.79-2.612,8.225-4.358,8.246-7.025.018-2.2-2.271-4.154-2.18-6.8a19.764,19.764,0,0,1,2.506-8.155c2.384-3.756,6.015-3.884,10.11-2.736,9.9,2.774,19.6,9.9,26.4,17.395,9.329-25.554,16.676-51.667,23.5-77.8,3.014-11.544,5.376-23.241,7.292-35.013,1.9-11.655,4.772-23.4,6.055-35.112.77-7.026,2.931-13.6,3.942-20.542.837-5.747,1.4-11.538,2.218-17.287,1.821-12.74,4.351-25.284,6.319-37.993,1.087-7.024,3.542-13.168,5.431-19.932,1.621-5.8,2.585-10.76,5.294-16.239,5.166-10.45,10.478-23.252,20.515-29.893,8.925-5.906,17.582-10.842,28.461-12.052,6.381-.71,11.523.79,17.762,1.479,5.525.61,10.256,3.663,15.645,4.763,0-5.121.5-5.26-4.173-7.081-2.692-1.05-5.319-2.2-8.061-3.115a25.9,25.9,0,0,1-7.542-3.666c-2.908-2.087-1.075-1.424-4.56-.7-5.494,1.137-3.874-.182-7.488-2.919-2.1-1.593-4.249-.621-6.71-.3-2.3.3-6.074,1.311-7.826-.755-1.332-1.572.12-4.269-.862-5.977-1.549-2.7-5.993-2.574-8.364-4.386-2.6-1.981-2.83-4.215-2.268-7.262.39-2.109,3.715-6.795,3.528-8.61a1.61,1.61,0,0,0-1.584-1.661c-6.5.328-6.185-.651-4.6-6.409.094.853.15,1.578.215,2.2a5.75,5.75,0,0,0-.215-2.2c-.169-.357-.776-.587-1.327-.875.146.144.3.291.476.456-.278,1.224-.359,4.422-1.534,5.292-.841.623-3.79.559-4.385-.482-1.244-2.174,3.036-3.408,3.2-5.022-4.915-.411-3.238-2.807-.669-5.252q.153-1.006-1.171-.952a2.672,2.672,0,0,1,1.524-.8,1.236,1.236,0,0,1-.891-.448,1.371,1.371,0,0,1-.107-.941c-.1.286-.179.531-.239.719-4.24,1.712-2.061-7.37-.3-8.918q-.2-3.779-.4-7.557a5.8,5.8,0,0,1,2.445,3.341c-.044-1.2-.743-2.218-2.445-3.341,2.725-1.2,2.993-1.346.066-1.6-2.426,2.212-2.087.376-3.59-.976.091.081-2.274-2.489-2.116-2.1-1.123-2.779.117-8.643,4.643-6.733-2.458,2.2.009,2.605.867,4.5.029.064.052.131.075.2a2.856,2.856,0,0,0-.2-.646c-1.516-3.259-1.875-.757-.207-4.464l.005-.009a2.775,2.775,0,0,1-2.227-.286c-1.366-1.668-1.779-.986-2.511-3.134-.642-1.88-.345-3.162.936-3.861-.146.038-.292.081-.44.118a2.762,2.762,0,0,1,1.53-3.488q.792,1.3,1.584,2.6c-.239.077-.479.146-.719.218h.008c1.677-.194,2.357.107,2.608.882a1.253,1.253,0,0,0-.085-1c-.2-.331-1.654.16-1.812-.1-2.6-4.26.146-7.807,4.33-9.977,1.588-.824,4.721-.852,5.281-2.781.4-1.363-1.578-4.661-1.956-6.278-2.919-1.339,2.469-2.122,2.506-2.127.161,1.907.057,2.751-1.045,2.6,1.11.151,1.206-.7,1.045-2.6-1.584.243-6.258-.193-8.55-1.751-3.793.108-5.745.765-8.045-2.524,2.248-.933,4.9-.431,6.913-1.864-.093.431-.169.822-.218,1.183a3.293,3.293,0,0,1,1.065-1.427c-.33.283-.159.374.232.361a3.157,3.157,0,0,1-.232-.361c-.136-1.6-1.31-.946-2.5-.846a3.434,3.434,0,0,1,.454-1.373,3.255,3.255,0,0,0-.454,1.373l-2.259-1.437a1.107,1.107,0,0,1-.751-.493.048.048,0,0,0,0,.012c-3.6,1.074-2.5-6.549-.848-6.51a1.339,1.339,0,0,1,1,.432,12.314,12.314,0,0,0-.46-2.487h0c-.169-.448-.336-.9-.506-1.344.909.058,3.843-1.695,3.9.4a2.145,2.145,0,0,1,.461-1.049c-.262-2.313,1.1-2.117,3.209-2.763.784-.24,1.649-1.741,2.531-1.111,1.327.947.528,1.838-.324,2.513a2.819,2.819,0,0,0,1.129,1.884,3.343,3.343,0,0,1,.278-.229,3.41,3.41,0,0,1-1.407-1.656c2.713-2.146,3.858-.742,5.946.985a4.591,4.591,0,0,1-2.718,1.1,3.149,3.149,0,0,1,.135.326,3.848,3.848,0,0,0,2.583-1.428c-2.217-1.835-2.018-2.959.678-4.047.912-.367,1.489.451,2.616.018.559-.215.963-1.191,1.509-1.514,4.08-2.415,8.981-1.04,13.326-1.612-.544-.07-1.031-.138-1.4-.187a4,4,0,0,1,2.824-2.6q0-1.28,0-2.561a2.6,2.6,0,0,1,.5-.062,1.1,1.1,0,0,1-.413-1.051,2.065,2.065,0,0,0,2.511-.659c-1.141,1.457-3.363.695-4.042-1.174-.711-1.959.813-3.275,2.139-4.728-.032-1.4.563-1.9,1.329-2.033-1.383-2.717-1.694-1.369-.209-4.767.123-2.29,2.066-1.458,3.376.013-.138-.337-.28-.684-.414-1.045q1.547-.1,3.092-.211c-.263.836-.84,2.325-.081,3.035-.5-.726-.145-2.313.081-3.035q1.893-1.056,3.786-2.113c-.106.226-.4,1.076-.756,2.038a30.965,30.965,0,0,1,3.086-3.582c.646-.679,3.174-3.939,3.875-4.142,4.286-1.242,7.528,7.14,12.757,5.992,3.083-.676,1.644-1.474,4.557-.909,1.6-2.072,12.006,1.186,12.4,3.158A2.032,2.032,0,0,0,273,18.4c1.174.421,2.195,1.068,3.331,1.506,2.85,1.1,1.154,1.386,4.39-.464a3.208,3.208,0,0,1,1.941-.492c-1.394-.626-2.065-4.957-2.085-6.5-.05-3.69.438-3.042-1-5.689a7.744,7.744,0,0,1,2.969.182,6.016,6.016,0,0,1-.34-1.839c-.72-1.952-.086-4.25,2.143-4.794,3.372-.823,4.033,4.017,1.59,4.81,2.337-.758,1.4-3.82,4.581-4.234-1.167-.06-1.892.161-2.979,1.5-.361-.725-.719-1.45-1.08-2.176,2.533-.265,3.7-.48,5.749.71,2,.357,3.414,1.807,4.924,3.223,4.115,3.855,7.81,7.618,11.6,11.8,1.947-4,4.1-6.909,7.254-2.435a54.922,54.922,0,0,1,6.642,14.316c2.962-1.359,1.713-1.8,2.955-4-1.291,2.145.022,2.638-2.955,4q-.442-1.405-.888-2.811c2.594-2.955,2.484-5.892,5.292-9.043.311,1.01-.584,2.45-.74,3.36-.175,1.009.944,1.71.69,2.8-1.049-.384-1.292-.152-1.326.267.036-.419.283-.648,1.326-.267.416-1.773-.618-2.715-.041-4.695a6.115,6.115,0,0,1,.981-1.951c-1.787-2.988,3.992-5.058,5.337-3.28a3.187,3.187,0,0,1,.373.634c2.256-1.015,2.953,1.144,4.006,2.766q.373.76.751,1.523c1.328,1.091,2.56,3.374,3.56,4.867,2.139,3.193,3.036,7.866,5.654,10.527-.088-1.714-1.023-5.514,2.055-3.981-1.016-.506-1.162-1.121-.939-1.834a3.549,3.549,0,0,1-.639.286l-1.3.126c.055-2.427,1.646-4.022,3.525-5.312,0,.634.02,1.286-.021,1.911.01-.023.021-.045.031-.067.825-1.976.475-2.558,1.19-3.164a5.342,5.342,0,0,1-1,.134c2.3-3.888,5.356-4.509,9.582-3.413-.288.068-.59.126-.9.183a3.106,3.106,0,0,1,1.375.3c1.642.8,4.069,5.391,5.208,6.984,4.009,5.6,5.875,12.471,7.973,18.949.589,1.823,1.484,6.095,3.763,6.706,2.648.711,5.454-3.6,7.786-5.046,7.459-4.615,11.169,3.671,12.318,10.245,1.714,2.908,1.319,5.15-1.153,6.528a6.813,6.813,0,0,0,1.141-3.165c-.327,1.868-1.886,2.516-2.167,3.315a26.718,26.718,0,0,0-.364,3.636q-1.911,1.427-.287,2.108a14.221,14.221,0,0,1,1.861,1.517c1.788,1.884,1.77,4.5,3.406,6.33,1.848,2.073,3.546,1.157,4.419,4.565,1.495,5.838-2.188,14.654-8.817,15.213.787,2.3,1.8,4.63,2.393,6.988.78,3.137.725,3.455-.753,6.455,11.024-1.638,10.162,10.032,3.879,15.764a12.889,12.889,0,0,1-5.041,2.807c-1.39.436-5.587.193-6.587,1.512-2.106,2.78,2.6,6.4,3.012,9.5a10.939,10.939,0,0,1,.046,1.5c1.736,2.124,1.651,2.3-.83,4.287-1.358,1.75-5.557,1.331-6.834,3.005-1.964,2.577,2.416,6.724.22,9.734-1.745,2.392-3.566.9-6.361,1.915q-2.029.927-4.056,1.859a4.843,4.843,0,0,0-2.078-.828c-1.579.8-.072,2.194-2.062,2.662-1.034.326-3.422,1.565-4.467.923,1.481.91,2.476,3.163,3.326,5.639.809,1.324,1.557,2.781,1.259,3.875a18.475,18.475,0,0,0,1.618,3.862c-3.44.524-3.035,3.764-5.416,5.544-3.217,2.754-3.753.2-2.993-1.146a8.2,8.2,0,0,0-.994.618c-.064.045.627,1.681-.052,2.063-.95.536-.949,0-1.937-.013-.93-.011-2.279-1.406-3.415-1.523-.605-.062-2.392.765-2.763.519-1.03-.682-.95-1.432-.549-2.337l-.461.92c-1.109,2.9-1.666,2.244-3.348,1.414.455.224-1.317-1.1-1.682-.992.829-2.3,4.112-2.054,6.135-2.628-1.282.363-3.363.377-4.542.885-1.973.849-1.349,1.714-3.686,1.978-.984.112-5-.978-5.7-1.693a.7.7,0,0,1-.151-.242q-.546-.871-1.091-1.745c-1.483.172.123,2.452-2.2,1.545-1.738-.679-.892-1.623-.339-2.654a2.408,2.408,0,0,1,.6-.751c-2.4.575-5.259,3.809-8.539,2.9-1.85-.51-1.953-1.773-3.309-2.953-1.812-1.577-2.373-1.334-4.567-2.1-1.329-.462-2.744-1.483-4.082-1.72-2.178-.387-1.577-.147-3.381.771-1.079.548-1.693,1.578-3.056,1.777-1.244.181-3.2-1.25-4.205-.856-2.74,1.071-2.043,4.917-2.2,7.452,13.871-4.414,30.084,2.642,40.293,12.332,2.768,2.627,4.58,5.742,7.039,8.6,2.669,3.1,5.186,4.508,5.561,8.924.324,3.808-1.394,6.094-.038,9.752a104.784,104.784,0,0,1,3.67,10.3c4.544,17.457,4.684,35.586,8.051,53.285a176.576,176.576,0,0,0,14.895,45.979c3.4,6.959,6.248,11.22,13.7,14.155,6.03,2.373,10.444-.738,13.391-6.152,7.931-14.57,9.059-29.554,8.963-45.806-.046-7.807-.937-15.615-1.689-23.377-.78-8.045-.2-15.561.364-23.594,1.123-16.106,4.8-29.919,10.327-45.066,2.622-7.184,4.833-14.188,11.147-18.862,3.537-2.617,7.089-5.891,11.236-8.154,3.316-1.811,5.291-3.447,9.074-4.258a73.064,73.064,0,0,0,7.157-2.13,60.417,60.417,0,0,1,18.172-2.367c13.883.047,29.12,4.721,41.618,10.714,6.222,2.985,12.98,7.429,17.079,13.09a39.661,39.661,0,0,1,3.991,7.557c1.375,3.142.943,3.717,3.855,3.607,1.824-.069,3.864-1.756,5.953-1.846,2.287-.1,3.961.7,6.09,1.289A26.319,26.319,0,0,1,571.953,203c5.83,3.765,10.761,9.764,15.216,15,8.156,9.581,15.535,20.318,23.165,30.077,7.514,9.608,16.642,18.135,28.313,22.491,4.452,1.662,9.382,2,13.928,3.341,1.995.59,4.411,2.155,6.5,2.128,3.284-.042,3.032-1.651,4.169-4.257a23.626,23.626,0,0,1,5.75-7.819c10.84-10.263,24.321,4.943,23.485,16.657-.49,6.844-5.619,11.359-5.439,18.076.17,6.284-.2,12.659-2.446,18.623-2.516,6.689-8.7,13.626-14.159,18.177-5.054,4.216-11.385,5.111-17.752,5.815-2.918.322-5.946,1.19-8.768,1.139-2.418-.045-4.617-1.023-7.085-.923-4.187.168-6.431.141-10.355-1.345a22.011,22.011,0,0,0-8.7-1.643c0,6.678-.423,13.21-1,19.865-.075.879-.683,3.161-.279,3.945.5.967,1.091.329,1.712,1.025,1.482,1.658,2.557,2.473,3.667,4.629a29.841,29.841,0,0,1,2.79,19.117c-.931,5.168-3.97,7.3-3.252,12.788.845,6.451,2.416,13.035,2.719,19.528a46.461,46.461,0,0,0,.837,8.441c.379,1.744,1.653,4.886,1.55,6.649-.065,1.089-1.219,1.571-1.221,2.569,0,.869,1,.754,1.072,1.5a55.256,55.256,0,0,1,.285,6.547c-.064,3.059.235,6.1.121,9.158-.087,2.329.455,7.845-2.16,6.936a13.386,13.386,0,0,1,.952,4.812,1.505,1.505,0,0,0,.037-.47,11.142,11.142,0,0,0-.989-4.342l1.492.519c.913,2.355-.208,4.662-.459,7.005.008.235.016.469.031.706a73.747,73.747,0,0,1-.3,10.133c-.58,7.755-.854,16.4-2.951,23.367-2.3,7.638-1.564,17.239-2.451,25.651-1.015,9.628-2.659,19.1-3.885,28.693-1.094,8.566-1.622,17.859-3.5,26.2a192.352,192.352,0,0,0-3.668,20.665c-1.143,9.957-4.776,17.542-8.776,26.589-1.691,3.829-1.807,3.768,1.3,6.565,1.3,1.171,2.4,2.542,3.728,3.686a16.273,16.273,0,0,0,9.035,4.042c8.577,1.016,17.241,4.065,22.06,11.459,4.657,7.148,1.639,15.523-1.845,22.806,4.6.39,17.038.109,14.128,8.488-1.989,5.728-12.6,3.809-17.28,3.872-6.846.092-13.739-.244-20.525-.337-3.089-.043-3.4-.363-6.412.815a16.818,16.818,0,0,1-8.065,1.029c-3.266-.214-6.53.267-9.7-.2-3.99-.591-6.472-1.09-10.48-.381a24.73,24.73,0,0,1-8.111-.12c-3.2-.425-6.239-.169-9.545-.258-7.722-.207-15.385-.062-23.112.024-7.511.084-15.028-.942-22.488-.6-13.009.586-26.249.052-39.318.356-6.028.141-10.685,3.648-16.727,3.287-6.141-.366-12.366-.422-18.46-1.28-10.492-1.478-20.6-3.569-31.261-4.114-6.738-.344-12.659,2.556-19,4.378-2.3.659-4.363.35-6.511.84-2.026.461-4.1,1.784-6.244,2.333a64.363,64.363,0,0,1-14.36,1.912q-.865,1.6-2,.391l-.918-.52c-1.42-.189-2.432-.829-3.923-.923-2.3-.147-4.646.166-6.777-.039a65.328,65.328,0,0,0-13.586-.205c-2.926.3-5.488-.125-8.369-.071.033,0-3.952.777-4.042.742-.354-.137-.911-1.121-1.141-1.165q.125-1.413-.852-1.276-.783-.17-1.033.818a6.089,6.089,0,0,1-1.34.741c-.081.013-3.681-.413-3.935-.508-1.032-.388-1.472-1.511-2.3-1.68-.975-.2-1.558.877-2.4.832-1.865-.1-1.645-.932-3.077-1.19-5.031-.907-11.191.272-16.387.28-5.179.009-10.328-.465-15.314-.684-6.131-.27-12.135.894-18.312.067-5.875-.786-11.752-1.128-17.671-1.377-12.369-.522-25.063.03-37.317-1.425-12.761-1.513-25.735,0-38.515-.228-13.475-.241-27.022-.363-40.493-.915-13.406-.55-26.759-2.146-40.113-2.467-3.4-.082-6.734-.891-10.118-1.137-3.1-.225-6.146.267-9.269-.006-5.69-.5-10.864-.116-16.582-.2-6.394-.1-12.6-1.073-18.966-1.465-6.428-.4-12.8.511-19.173-.757-3.486-.694-9.988-5.469-5.54-9.469Z" transform="translate(0 0)" fill-rule="evenodd"/><path d="M438.44,106.71h.024c.033.037.066.077.1.112Z" transform="translate(-184.484 0)" fill-rule="evenodd"/><path d="M488.183,77.266c-.807-2.808,1.238-4.819,2.609-7,.807,4.948,3.285,4.734-2.609,7" transform="translate(-287.484 0)" fill-rule="evenodd"/><path d="M343.537,182.682c-.021.057-.048.107-.065.167-.023-.1,0-.15.065-.167" transform="translate(5.516 0)" fill-rule="evenodd"/><path d="M320.861,178.976c-.183.414-.586,3.273-.876,3.287-2.591.123.566-4.714,2.222-5,2.4,1.546-1.4,1.838-1.346,1.71" transform="translate(50.516 0)" fill-rule="evenodd"/><path d="M318,162.266c.171-2.185.907-2.462,3-1.4-.625,1.374-1.37,1.177-3,1.4" transform="translate(53.515 0)" fill-rule="evenodd"/><path d="M295,108.767l-3,.5,1.762-4q.62,1.75,1.238,3.5" transform="translate(105.515 0)" fill-rule="evenodd"/><path d="M312.474,547.76s0,0,0-.006c.073.028.084.034,0,.006" transform="translate(67.517 0)" fill-rule="evenodd"/><path d="M126.489,275.414c-2.118-3.542-6.134-7.916-10.706-6.444-4.27,1.376-5.453,6.975-7.293,10.5-3.581,6.848-4.695-.5-5.489-4.66.647-8.323,3.885-21.87,14.839-20.435,8.332,1.094,15.527,14.478,13.94,22.391-1.332,6.652-3.583,1.508-5.291-1.348" transform="translate(457.516 0)" fill-rule="evenodd"/><path d="M424.735,118.553c4.09-1.46,4.087,2.96,4.244,6.283.145,3.053-.328,10.215-4.181,11.305s-4.2-5.237-4.8-7.794c.9-3.036,1.391-8.6,4.734-9.794" transform="translate(-156.484 0)" fill-rule="evenodd"/><path d="M415,111.92c3-2.655,5.008-3.468,8.843-1.753,1.975.882,4.794,2.8,5.1,5.221.965,7.531-11.3-1.923-13.946-3.468" transform="translate(-151.485 0)" fill-rule="evenodd"/><path d="M431.374,157.038c-7,1.808-7.444-7.757.337-7.772,5.207-.01,3.572,6.763-.337,7.772" transform="translate(-168.484 0)" fill-rule="evenodd"/><path d="M378.869,127.3c2.611.382,3.534,2.021,2.974,4.637-.646,3.018-2.283,3.043-5.211,3.325-7.06.022-2.453-8.646,2.237-7.962" transform="translate(-62.484 0)" fill-rule="evenodd"/><path d="M445.906,111.107c-.646,1.792-4.154,2.6-5.988,1.918-2.181-.813-2.634-2.788-.665-4.6,1.685-1.553,4.01-1.144,6.12-1-.071.678.935,2.569.533,3.683" transform="translate(-191.484 0)" fill-rule="evenodd"/><path d="M217.44,315.266c-3.337-.005-.188-5.649,2.561-6-.058,1.746.057,6-2.561,6" transform="translate(256.516 0)" fill-rule="evenodd"/></g></svg>